<svg width="64" height="32" viewBox="0 0 64 32" fill="none" xmlns="http://www.w3.org/2000/svg">
<path d="M53.7199 18.8481H8.47699C7.17943 18.8481 6.19925 17.7867 6.43574 16.6362L8.38442 7.13089C8.56645 6.24335 9.4245 5.59961 10.4257 5.59961H55.8358C57.1334 5.59961 57.9463 6.66097 57.7106 7.81154L55.7619 17.3161C55.5791 18.2036 54.721 18.8481 53.7199 18.8481Z" fill="#070707"/>
<path d="M25.4673 11.3105C25.9029 9.5354 24.7967 8.0918 23.0013 8.0918H21.3777H20.347H19.3062L17.3691 16.0066H19.4407L19.8025 14.5292H21.4221C21.5154 14.5292 21.6088 14.523 21.7021 14.5153L22.3992 16.0066H24.7757L23.7232 13.7554C24.5664 13.1655 25.2269 12.2888 25.4673 11.3105ZM20.1984 12.9079L20.9802 9.71306H22.3004C23.3684 9.71306 23.678 10.4299 23.4618 11.3105C23.2455 12.1911 22.5952 12.9079 21.5162 12.9079H20.1984Z" fill="white"/>
<path d="M39.9458 12.451C39.805 12.2365 39.6128 12.0619 39.3724 11.9288C39.7225 11.7527 40.0134 11.5197 40.2398 11.232C40.5168 10.8805 40.6669 10.4529 40.6879 9.96225C40.7136 9.36158 40.488 8.89166 40.0189 8.5671C39.563 8.25177 38.8979 8.0918 38.0414 8.0918H34.1923L32.2568 16.0058H36.4739C37.5506 16.0058 38.4366 15.7928 39.1072 15.3721C39.7941 14.9422 40.1605 14.3 40.1955 13.4647C40.2126 13.0702 40.1278 12.7287 39.9458 12.451ZM35.0729 12.7664H37.1554C38.2063 12.7664 38.1853 13.2755 38.1783 13.4432C38.1643 13.7654 38.0329 14.0039 37.7754 14.1731C37.507 14.3492 37.1289 14.4384 36.6513 14.4384H34.6692L35.0729 12.7664ZM38.1799 10.9844C37.931 11.1559 37.5778 11.2428 37.1305 11.2428H35.4377L35.8251 9.65768H37.5529C38.5821 9.65768 38.5626 10.1176 38.5564 10.2691C38.5432 10.5844 38.4203 10.819 38.1799 10.9844Z" fill="#3486E3"/>
<path d="M47.2259 9.74494L47.6436 8.08984H41.8015L39.8652 16.0046H45.8497L46.2675 14.3495H42.2931L42.6688 12.7983H46.0201L46.4114 11.187H43.071L43.4203 9.74494H47.2259Z" fill="#3486E3"/>
<path d="M48.1568 8.08984L47.7383 9.76725H50.0611L48.5419 16.0046H50.5753L52.1055 9.76725H54.7496L55.1674 8.08984H48.1568Z" fill="#3486E3"/>
<path d="M16.5318 12.9059L16.8943 11.4285H14.8227L14.4602 12.9059H12.8631H12.268L16.8632 8.11133H14.4874L9.65344 13.1543L9.31738 14.5272H10.394H10.7145H12.4656H14.0627L13.7002 16.0046H15.7718L16.1343 14.5272H17.7298L18.1281 12.9059H16.5318Z" fill="white"/>
<path d="M31.0458 16.0054H33.1563L31.6938 8.11133H31.2216H29.5833H29.1111L23.7754 16.0054H25.8859L26.8847 14.5279H30.772L31.0458 16.0054ZM27.9808 12.9067L29.9357 10.0141L30.4717 12.9067H27.9808Z" fill="white"/>
<path d="M48.6154 25.0812C48.3867 25.0812 48.1676 25.0622 47.958 25.024C47.7484 24.9897 47.5579 24.9402 47.3864 24.8754C47.2149 24.8068 47.0682 24.7325 46.9463 24.6525L47.3921 23.8065C47.5293 23.8904 47.6703 23.9628 47.8151 24.0237C47.9637 24.0809 48.1143 24.1247 48.2667 24.1552C48.4191 24.1857 48.5716 24.2009 48.724 24.2009C48.8688 24.2009 48.9926 24.1876 49.0955 24.1609C49.1984 24.1304 49.2765 24.0885 49.3299 24.0352C49.3832 23.9818 49.4099 23.9189 49.4099 23.8465C49.4099 23.7665 49.3737 23.7036 49.3013 23.6579C49.2327 23.6084 49.1413 23.5665 49.0269 23.5322C48.9126 23.4979 48.785 23.4636 48.644 23.4293C48.5068 23.3912 48.3677 23.3473 48.2267 23.2978C48.0895 23.2444 47.9637 23.1797 47.8494 23.1035C47.7351 23.0234 47.6417 22.9224 47.5693 22.8005C47.5007 22.6786 47.4665 22.528 47.4665 22.3489C47.4665 22.0593 47.5446 21.8078 47.7008 21.5944C47.857 21.381 48.0781 21.2153 48.3639 21.0971C48.6535 20.979 48.9945 20.9199 49.387 20.9199C49.6728 20.9199 49.9396 20.9504 50.1873 21.0114C50.435 21.0685 50.6484 21.1524 50.8275 21.2629L50.4159 22.1031C50.2597 22.0041 50.0863 21.9298 49.8958 21.8802C49.709 21.8269 49.5166 21.8002 49.3184 21.8002C49.166 21.8002 49.0346 21.8173 48.924 21.8516C48.8173 21.8859 48.7354 21.9336 48.6783 21.9945C48.6249 22.0517 48.5982 22.1165 48.5982 22.1889C48.5982 22.2651 48.6325 22.328 48.7011 22.3775C48.7697 22.4271 48.8612 22.469 48.9755 22.5033C49.0936 22.5376 49.2213 22.5738 49.3585 22.6119C49.4995 22.6462 49.6385 22.6881 49.7757 22.7376C49.9129 22.7834 50.0406 22.8462 50.1587 22.9263C50.2768 23.0025 50.3702 23.0996 50.4388 23.2178C50.5074 23.3359 50.5417 23.4826 50.5417 23.6579C50.5417 23.9437 50.4636 24.1933 50.3073 24.4067C50.1511 24.6201 49.9282 24.7859 49.6385 24.904C49.3489 25.0221 49.0079 25.0812 48.6154 25.0812Z" fill="white"/>
<path d="M44.8094 22.549H46.6671L46.5013 23.395H44.6436L44.8094 22.549ZM44.575 24.1267H46.6728L46.4899 25.0012H43.2832L44.0835 21H47.2158L47.0386 21.8746H45.0209L44.575 24.1267Z" fill="white"/>
<path d="M40.2194 25.0012L39.3105 21H40.4709L41.2369 24.4696H40.4995L42.6773 21H43.8434L41.334 25.0012H40.2194Z" fill="white"/>
<path d="M37.0645 25.0012L37.8647 21H38.9965L38.1962 25.0012H37.0645Z" fill="white"/>
<path d="M34.8556 25.0812C34.627 25.0812 34.4079 25.0622 34.1983 25.024C33.9887 24.9897 33.7981 24.9402 33.6267 24.8754C33.4552 24.8068 33.3085 24.7325 33.1865 24.6525L33.6324 23.8065C33.7696 23.8904 33.9106 23.9628 34.0554 24.0237C34.204 24.0809 34.3545 24.1247 34.5069 24.1552C34.6594 24.1857 34.8118 24.2009 34.9642 24.2009C35.109 24.2009 35.2329 24.1876 35.3358 24.1609C35.4386 24.1304 35.5168 24.0885 35.5701 24.0352C35.6235 23.9818 35.6501 23.9189 35.6501 23.8465C35.6501 23.7665 35.6139 23.7036 35.5415 23.6579C35.4729 23.6084 35.3815 23.5665 35.2672 23.5322C35.1528 23.4979 35.0252 23.4636 34.8842 23.4293C34.747 23.3912 34.6079 23.3473 34.4669 23.2978C34.3297 23.2444 34.204 23.1797 34.0897 23.1035C33.9753 23.0234 33.882 22.9224 33.8096 22.8005C33.741 22.6786 33.7067 22.528 33.7067 22.3489C33.7067 22.0593 33.7848 21.8078 33.941 21.5944C34.0973 21.381 34.3183 21.2153 34.6041 21.0971C34.8937 20.979 35.2348 20.9199 35.6273 20.9199C35.9131 20.9199 36.1798 20.9504 36.4275 21.0114C36.6752 21.0685 36.8886 21.1524 37.0677 21.2629L36.6562 22.1031C36.4999 22.0041 36.3265 21.9298 36.136 21.8802C35.9493 21.8269 35.7568 21.8002 35.5587 21.8002C35.4063 21.8002 35.2748 21.8173 35.1643 21.8516C35.0576 21.8859 34.9756 21.9336 34.9185 21.9945C34.8651 22.0517 34.8385 22.1165 34.8385 22.1889C34.8385 22.2651 34.8728 22.328 34.9414 22.3775C35.0099 22.4271 35.1014 22.469 35.2157 22.5033C35.3339 22.5376 35.4615 22.5738 35.5987 22.6119C35.7397 22.6462 35.8788 22.6881 36.016 22.7376C36.1532 22.7834 36.2808 22.8462 36.3989 22.9263C36.5171 23.0025 36.6104 23.0996 36.679 23.2178C36.7476 23.3359 36.7819 23.4826 36.7819 23.6579C36.7819 23.9437 36.7038 24.1933 36.5476 24.4067C36.3913 24.6201 36.1684 24.7859 35.8788 24.904C35.5892 25.0221 35.2481 25.0812 34.8556 25.0812Z" fill="white"/>
<path d="M30.8195 25.0813C30.4194 25.0813 30.0841 25.005 29.8135 24.8526C29.5468 24.6964 29.3581 24.4792 29.2476 24.201C29.1371 23.919 29.118 23.5913 29.1905 23.2178L29.6363 21H30.7681L30.3279 23.2007C30.2975 23.3607 30.2879 23.4998 30.2994 23.618C30.3108 23.7361 30.3432 23.8352 30.3965 23.9152C30.4537 23.9952 30.528 24.0543 30.6195 24.0924C30.7147 24.1267 30.8271 24.1438 30.9567 24.1438C31.1129 24.1438 31.2482 24.1133 31.3626 24.0524C31.4807 23.9876 31.5779 23.8866 31.6541 23.7494C31.7341 23.6084 31.7951 23.4255 31.837 23.2007L32.2771 21H33.3917L32.9402 23.2693C32.822 23.8637 32.5858 24.3153 32.2314 24.624C31.877 24.9288 31.4064 25.0813 30.8195 25.0813Z" fill="white"/>
<path d="M25.4209 25.0012L26.2211 21H27.3529L26.7356 24.1038H28.6448L28.4618 25.0012H25.4209Z" fill="white"/>
<path d="M23.3841 25.0812C22.9764 25.0812 22.6201 25.0069 22.3152 24.8583C22.0142 24.7097 21.7817 24.5039 21.6179 24.2409C21.454 23.9742 21.3721 23.6674 21.3721 23.3207C21.3721 22.9739 21.433 22.6538 21.555 22.3604C21.6769 22.0669 21.8484 21.8135 22.0694 21.6001C22.2904 21.3829 22.5534 21.2153 22.8582 21.0971C23.1669 20.979 23.508 20.9199 23.8814 20.9199C24.2511 20.9199 24.5788 20.9847 24.8646 21.1143C25.1504 21.2438 25.3638 21.4306 25.5048 21.6744L24.6874 22.3261C24.5959 22.1736 24.4759 22.0574 24.3273 21.9774C24.1825 21.8974 24.0091 21.8574 23.8071 21.8574C23.6128 21.8574 23.4356 21.8917 23.2755 21.9602C23.1193 22.0288 22.984 22.126 22.8697 22.2518C22.7554 22.3775 22.6677 22.5261 22.6067 22.6976C22.5458 22.8653 22.5153 23.0482 22.5153 23.2464C22.5153 23.4255 22.5534 23.5836 22.6296 23.7208C22.7096 23.8542 22.822 23.959 22.9668 24.0352C23.1155 24.1076 23.2908 24.1438 23.4927 24.1438C23.6718 24.1438 23.8433 24.1076 24.0072 24.0352C24.1748 23.9628 24.3292 23.8446 24.4702 23.6808L25.1389 24.3381C24.9141 24.6087 24.655 24.8011 24.3616 24.9154C24.0681 25.026 23.7423 25.0812 23.3841 25.0812Z" fill="white"/>
<path d="M16.7139 25.0012L18.9203 22.6005L18.7888 23.2521L17.5941 21H18.8002L19.5662 22.5033H19.0689L20.4007 21H21.6811L19.6119 23.2636L19.6519 22.6234L20.9437 25.0012H19.7205L18.9203 23.4179L19.4347 23.4293L18.0686 25.0012H16.7139Z" fill="white"/>
<path d="M14.8504 22.549H16.7081L16.5424 23.395H14.6846L14.8504 22.549ZM14.616 24.1267H16.7138L16.5309 25.0012H13.3242L14.1245 21H17.2569L17.0797 21.8746H15.0619L14.616 24.1267Z" fill="white"/>
</svg>
