<svg width="96" height="48" viewBox="0 0 96 48" fill="none" xmlns="http://www.w3.org/2000/svg">
<path d="M19.0781 18.0098H28.3197V20.1041H21.4816V23.1612H26.0357V25.2554H21.4816V28.671H28.5305V30.7653H19.0781V18.0098Z" fill="white"/>
<path d="M28.3223 21.6992H30.782L32.9325 28.0172L34.9284 21.6992H37.3108L34.0078 30.7651H31.801L28.3223 21.6992Z" fill="white"/>
<path d="M37.3877 26.252C37.3877 23.483 39.3063 21.5293 42.0542 21.5293C44.781 21.5293 46.7066 23.4901 46.7066 26.252C46.7066 28.9788 44.7458 30.9395 41.9979 30.9395C39.2711 30.9395 37.3877 29.0139 37.3877 26.252ZM44.289 26.3082V26.2309C44.289 24.5021 43.4457 23.4619 42.0612 23.4619C40.6556 23.4619 39.8123 24.5021 39.8123 26.2309V26.3082C39.8123 28.0019 40.6345 28.9999 42.019 28.9999C43.4246 28.9999 44.289 27.9949 44.289 26.3082Z" fill="white"/>
<path d="M48.2432 17.834H50.6467V30.7652H48.2432V17.834Z" fill="white"/>
<path d="M52.4717 27.1317V21.6992H54.8541V26.9982C54.8541 28.207 55.4304 28.9168 56.5056 28.9168C57.7566 28.9168 58.2767 27.8626 58.2767 26.3024V21.6992H60.6591V30.7651H58.2767V29.479C57.7988 30.4207 56.9695 30.9408 55.7958 30.9408C53.7437 30.9408 52.4717 29.479 52.4717 27.1317Z" fill="white"/>
<path d="M63.2832 28.3621V23.6183H61.9971V21.6997H63.2832V19.9849L65.6094 18.6777V21.6927H67.3944V23.6113H65.5883V28.1231C65.5883 28.5659 65.7991 28.7556 66.2419 28.7767H67.296V30.7586H65.4548C63.7048 30.6672 63.3253 29.866 63.2832 28.3621Z" fill="white"/>
<path d="M68.9346 18.0449H71.4154V20.3711H68.9346V18.0449ZM68.9697 21.6994H71.3732V30.7653H68.9697V21.6994Z" fill="white"/>
<path d="M72.9092 26.252C72.9092 23.483 74.8278 21.5293 77.5757 21.5293C80.3024 21.5293 82.2281 23.4901 82.2281 26.252C82.2281 28.9788 80.2673 30.9395 77.5194 30.9395C74.7926 30.9395 72.9092 29.0139 72.9092 26.252ZM79.8035 26.3082V26.2309C79.8035 24.5021 78.9601 23.4619 77.5757 23.4619C76.1701 23.4619 75.3268 24.5021 75.3268 26.2309V26.3082C75.3268 28.0019 76.149 28.9999 77.5335 28.9999C78.939 28.9999 79.8035 27.9949 79.8035 26.3082Z" fill="white"/>
<path d="M83.7443 21.6987H86.1268V23.1746C86.6047 22.1204 87.4902 21.502 88.7762 21.502C90.7581 21.502 91.9247 22.8302 91.9247 25.3251V30.7646H89.5423V25.4656C89.5423 24.2006 89.0644 23.547 87.947 23.547C86.8155 23.547 86.1197 24.4677 86.1197 26.1614V30.7716H83.7373L83.7443 21.6987Z" fill="white"/>
<path d="M13.4673 19.1834C11.2957 16.3231 7.35309 15.5149 4.07812 17.2649C5.35719 20.1392 6.31297 23.5196 12.6169 23.7164C13.3548 23.7375 14.1701 23.7164 15.0626 23.6461C14.9361 21.84 14.3458 20.343 13.4673 19.1834Z" fill="white"/>
<path d="M12.3077 25.0663C8.51268 25.2561 6.73464 26.6335 5.62425 28.3413C4.97066 29.3463 4.54899 30.4567 4.07812 31.5038C8.67432 33.9565 14.6128 31.3703 15.0626 25.1155C14.0436 25.0382 13.1229 25.0242 12.3077 25.0663Z" fill="white"/>
</svg>
