<svg width="64" height="32" viewBox="0 0 64 32" fill="none" xmlns="http://www.w3.org/2000/svg">
<path d="M55.4248 10.7945C55.8584 10.7902 56.281 10.6577 56.6395 10.4137C56.9979 10.1697 57.2762 9.82509 57.4391 9.42326C57.6021 9.02144 57.6425 8.58039 57.5553 8.15564C57.4681 7.73088 57.2572 7.3414 56.9491 7.03629C56.641 6.73119 56.2495 6.52408 55.8239 6.44104C55.3983 6.35801 54.9576 6.4028 54.5574 6.56971C54.1572 6.73662 53.8153 7.01819 53.5749 7.37902C53.3344 7.73985 53.2061 8.16375 53.2061 8.59736C53.2159 9.18073 53.4535 9.73713 53.8681 10.1477C54.2827 10.5582 54.8414 10.7903 55.4248 10.7945Z" fill="#F72442"/>
<path d="M49.7947 21.5589H53.0199V11.9037H49.7947V21.5589ZM43.1487 18.2944C42.0348 18.2944 41.4483 17.3952 41.4483 16.3203C41.4483 15.284 42.0348 14.4241 43.1487 14.4241C43.4782 14.4264 43.8039 14.495 44.1062 14.626C44.4085 14.7571 44.6813 14.9477 44.9082 15.1867V17.513C44.6821 17.7544 44.4099 17.948 44.1077 18.0823C43.8055 18.2165 43.4794 18.2884 43.1487 18.2944ZM43.1093 25.7814C46.5302 25.7814 48.1329 24.1003 48.1329 21.2466V11.9037H44.9078V12.4508C44.2434 11.8725 43.3856 11.5655 42.5051 11.5909C39.8661 11.5909 38.1267 13.565 38.1267 16.3214C38.1267 19.118 39.8665 21.13 42.5051 21.13C43.3794 21.1185 44.2249 20.8158 44.9078 20.2698V21.2474C44.9078 22.303 44.3016 22.8505 42.914 22.8505C41.5095 22.7955 40.1512 22.3336 39.0043 21.5212V24.6486C40.2515 25.3753 41.6659 25.7658 43.1093 25.7822M30.9706 21.8729C31.4499 21.8862 31.927 21.803 32.3735 21.6284C32.8201 21.4537 33.227 21.1912 33.5702 20.8563V21.5601H36.7564V11.9037H33.5312V18.0806C33.3696 18.3359 33.148 18.5478 32.8856 18.6977C32.6233 18.8477 32.3282 18.9311 32.0262 18.9408C31.847 18.9489 31.6681 18.9187 31.5015 18.8519C31.335 18.7852 31.1847 18.6836 31.0606 18.554C30.9366 18.4244 30.8417 18.2698 30.7823 18.1005C30.723 17.9312 30.7005 17.7511 30.7165 17.5724V11.9037H27.4914V18.3736C27.4733 18.8363 27.5507 19.2977 27.7189 19.7291C27.887 20.1606 28.1423 20.5527 28.4688 20.881C28.7953 21.2094 29.1859 21.467 29.6164 21.6376C30.0468 21.8083 30.5078 21.8884 30.9706 21.8729ZM17.1117 21.5601H26.0253V18.8624H21.4326L25.9284 14.484V11.9037H17.1909V14.5427H21.6087L17.1125 18.9211L17.1117 21.5601ZM6.40039 21.5601H15.9395V18.4327H9.72281V16.2238H15.3329V13.194H9.72281V10.9067H15.9387V7.87695H6.40078L6.40039 21.5601Z" fill="white"/>
</svg>
