<svg width="64" height="32" viewBox="0 0 64 32" fill="none" xmlns="http://www.w3.org/2000/svg">
<g clip-path="url(#clip0_21796_14434)">
<path d="M5.08789 17.9219H6.49589V19.3292H5.08789V17.9219Z" fill="white"/>
<path d="M5.08789 19.5859H6.49589V20.9933H5.08789V19.5859Z" fill="white"/>
<path d="M3.3916 9.44531H4.7996V10.8527H3.3916V9.44531Z" fill="white"/>
<path d="M3.3916 7.75195H4.7996V9.15932H3.3916V7.75195Z" fill="white"/>
<path d="M6.75195 7.75195H8.15995V9.15932H6.75195V7.75195Z" fill="white"/>
<path d="M6.75195 17.9219H8.15995V19.3292H6.75195V17.9219Z" fill="white"/>
<path d="M6.75195 9.44531H8.15995V10.8527H6.75195V9.44531Z" fill="white"/>
<path d="M5.08789 7.75195H6.49589V9.15932H5.08789V7.75195Z" fill="white"/>
<path d="M5.08789 9.44531H6.49589V10.8527H5.08789V9.44531Z" fill="white"/>
<path d="M6.75195 19.5859H8.15995V20.9933H6.75195V19.5859Z" fill="white"/>
<path d="M0 16.2266H1.408V17.6339H0V16.2266Z" fill="white"/>
<path d="M0 12.8359H1.408V14.2433H0V12.8359Z" fill="white"/>
<path d="M3.3916 17.9219H4.7996V19.3292H3.3916V17.9219Z" fill="white"/>
<path d="M0 11.1406H1.408V12.548H0V11.1406Z" fill="white"/>
<path d="M0 9.44531H1.408V10.8527H0V9.44531Z" fill="#5E4FA1"/>
<path d="M0 14.5312H1.408V15.9386H0V14.5312Z" fill="white"/>
<path d="M0 22.9766H1.408V24.3839H0V22.9766Z" fill="white"/>
<path d="M0 21.2812H1.408V22.6886H0V21.2812Z" fill="white"/>
<path d="M0 17.9219H1.408V19.3292H0V17.9219Z" fill="white"/>
<path d="M0 19.5859H1.408V20.9933H0V19.5859Z" fill="white"/>
<path d="M1.69629 22.9766H3.10429V24.3839H1.69629V22.9766Z" fill="#1EBEE6"/>
<path d="M1.69629 7.75195H3.10429V9.15932H1.69629V7.75195Z" fill="white"/>
<path d="M1.69629 21.2812H3.10429V22.6886H1.69629V21.2812Z" fill="white"/>
<path d="M1.69629 9.44531H3.10429V10.8527H1.69629V9.44531Z" fill="white"/>
<path d="M1.69629 11.1406H3.10429V12.548H1.69629V11.1406Z" fill="white"/>
<path d="M3.3916 19.5859H4.7996V20.9933H3.3916V19.5859Z" fill="white"/>
<path d="M1.69629 12.8359H3.10429V14.2433H1.69629V12.8359Z" fill="white"/>
<path d="M1.69629 19.5859H3.10429V20.9933H1.69629V19.5859Z" fill="white"/>
<path d="M1.69629 17.9219H3.10429V19.3292H1.69629V17.9219Z" fill="white"/>
<path d="M1.69629 14.5312H3.10429V15.9386H1.69629V14.5312Z" fill="white"/>
<path d="M1.69629 16.2266H3.10429V17.6339H1.69629V16.2266Z" fill="white"/>
<path d="M10.1436 17.9219H11.5516V19.3292H10.1436V17.9219Z" fill="white"/>
<path d="M13.5361 16.2266H14.9441V17.6339H13.5361V16.2266Z" fill="white"/>
<path d="M13.5361 17.9219H14.9441V19.3292H13.5361V17.9219Z" fill="white"/>
<path d="M13.5361 9.44531H14.9441V10.8527H13.5361V9.44531Z" fill="white"/>
<path d="M13.5361 14.5312H14.9441V15.9386H13.5361V14.5312Z" fill="white"/>
<path d="M13.5361 12.8359H14.9441V14.2433H13.5361V12.8359Z" fill="white"/>
<path d="M13.5361 11.1406H14.9441V12.548H13.5361V11.1406Z" fill="white"/>
<path d="M11.8398 11.1406H13.2478V12.548H11.8398V11.1406Z" fill="white"/>
<path d="M11.8398 9.44531H13.2478V10.8527H11.8398V9.44531Z" fill="white"/>
<path d="M11.8398 7.75195H13.2478V9.15932H11.8398V7.75195Z" fill="white"/>
<path d="M15.2324 14.5312H16.6404V15.9386H15.2324V14.5312Z" fill="white"/>
<path d="M15.2324 11.1406H16.6404V12.548H15.2324V11.1406Z" fill="white"/>
<path d="M15.2324 12.8359H16.6404V14.2433H15.2324V12.8359Z" fill="white"/>
<path d="M13.5361 7.75195H14.9441V9.15932H13.5361V7.75195Z" fill="#F36F21"/>
<path d="M15.2324 16.2266H16.6404V17.6339H15.2324V16.2266Z" fill="white"/>
<path d="M8.44824 7.75195H9.85624V9.15932H8.44824V7.75195Z" fill="white"/>
<path d="M8.44824 9.44531H9.85624V10.8527H8.44824V9.44531Z" fill="white"/>
<path d="M8.44824 17.9219H9.85624V19.3292H8.44824V17.9219Z" fill="white"/>
<path d="M10.1436 19.5859H11.5516V20.9933H10.1436V19.5859Z" fill="#B64C9C"/>
<path d="M8.44824 19.5859H9.85624V20.9933H8.44824V19.5859Z" fill="white"/>
<path d="M10.1436 7.75195H11.5516V9.15932H10.1436V7.75195Z" fill="white"/>
<path d="M11.8398 17.9219H13.2478V19.3292H11.8398V17.9219Z" fill="white"/>
<path d="M11.8398 16.2266H13.2478V17.6339H11.8398V16.2266Z" fill="white"/>
<path d="M10.1436 9.44531H11.5516V10.8527H10.1436V9.44531Z" fill="white"/>
<path d="M25.376 21.2812H26.784V22.6886H25.376V21.2812Z" fill="white"/>
<path d="M25.376 22.9766H26.784V24.3839H25.376V22.9766Z" fill="white"/>
<path d="M23.6797 11.1406H25.0877V12.548H23.6797V11.1406Z" fill="white"/>
<path d="M23.6797 9.44531H25.0877V10.8527H23.6797V9.44531Z" fill="white"/>
<path d="M23.6797 7.75195H25.0877V9.15932H23.6797V7.75195Z" fill="#FDB81B"/>
<path d="M27.0723 7.75195H28.4803V9.15932H27.0723V7.75195Z" fill="white"/>
<path d="M27.0723 9.44531H28.4803V10.8527H27.0723V9.44531Z" fill="white"/>
<path d="M27.0723 21.2812H28.4803V22.6886H27.0723V21.2812Z" fill="white"/>
<path d="M25.376 7.75195H26.784V9.15932H25.376V7.75195Z" fill="white"/>
<path d="M25.376 9.44531H26.784V10.8527H25.376V9.44531Z" fill="white"/>
<path d="M27.0723 22.9766H28.4803V24.3839H27.0723V22.9766Z" fill="white"/>
<path d="M20.2881 16.2266H21.6961V17.6339H20.2881V16.2266Z" fill="white"/>
<path d="M20.2881 12.8359H21.6961V14.2433H20.2881V12.8359Z" fill="white"/>
<path d="M20.2881 11.1406H21.6961V12.548H20.2881V11.1406Z" fill="#E51B73"/>
<path d="M20.2881 14.5312H21.6961V15.9386H20.2881V14.5312Z" fill="white"/>
<path d="M20.2881 17.9219H21.6961V19.3292H20.2881V17.9219Z" fill="white"/>
<path d="M20.2881 19.5859H21.6961V20.9933H20.2881V19.5859Z" fill="white"/>
<path d="M21.9844 21.2812H23.3924V22.6886H21.9844V21.2812Z" fill="#3D81C3"/>
<path d="M21.9844 9.44531H23.3924V10.8527H21.9844V9.44531Z" fill="white"/>
<path d="M21.9844 11.1406H23.3924V12.548H21.9844V11.1406Z" fill="white"/>
<path d="M23.6797 21.2812H25.0877V22.6886H23.6797V21.2812Z" fill="white"/>
<path d="M23.6797 19.5859H25.0877V20.9933H23.6797V19.5859Z" fill="white"/>
<path d="M23.6797 22.9766H25.0877V24.3839H23.6797V22.9766Z" fill="white"/>
<path d="M21.9844 12.8359H23.3924V14.2433H21.9844V12.8359Z" fill="white"/>
<path d="M21.9844 19.5859H23.3924V20.9933H21.9844V19.5859Z" fill="white"/>
<path d="M21.9844 17.9219H23.3924V19.3292H21.9844V17.9219Z" fill="white"/>
<path d="M21.9844 14.5312H23.3924V15.9386H21.9844V14.5312Z" fill="white"/>
<path d="M21.9844 16.2266H23.3924V17.6339H21.9844V16.2266Z" fill="white"/>
<path d="M33.8242 16.2266H35.2322V17.6339H33.8242V16.2266Z" fill="white"/>
<path d="M33.8242 17.9219H35.2322V19.3292H33.8242V17.9219Z" fill="white"/>
<path d="M33.8242 9.44531H35.2322V10.8527H33.8242V9.44531Z" fill="white"/>
<path d="M33.8242 14.5312H35.2322V15.9386H33.8242V14.5312Z" fill="white"/>
<path d="M33.8242 11.1406H35.2322V12.548H33.8242V11.1406Z" fill="white"/>
<path d="M33.8242 19.5859H35.2322V20.9933H33.8242V19.5859Z" fill="white"/>
<path d="M33.8242 21.2812H35.2322V22.6886H33.8242V21.2812Z" fill="white"/>
<path d="M32.1279 11.1406H33.5359V12.548H32.1279V11.1406Z" fill="white"/>
<path d="M32.1279 9.44531H33.5359V10.8527H32.1279V9.44531Z" fill="white"/>
<path d="M35.5195 14.5312H36.9275V15.9386H35.5195V14.5312Z" fill="#5EBF85"/>
<path d="M28.7676 22.9766H30.1756V24.3839H28.7676V22.9766Z" fill="white"/>
<path d="M35.5195 19.5859H36.9275V20.9933H35.5195V19.5859Z" fill="#EE2830"/>
<path d="M35.5195 16.2266H36.9275V17.6339H35.5195V16.2266Z" fill="white"/>
<path d="M35.5195 17.9219H36.9275V19.3292H35.5195V17.9219Z" fill="white"/>
<path d="M28.7676 7.75195H30.1756V9.15932H28.7676V7.75195Z" fill="white"/>
<path d="M28.7676 9.44531H30.1756V10.8527H28.7676V9.44531Z" fill="white"/>
<path d="M30.4316 21.2812H31.8396V22.6886H30.4316V21.2812Z" fill="white"/>
<path d="M28.7676 14.5312H30.1756V15.9386H28.7676V14.5312Z" fill="white"/>
<path d="M30.4316 22.9766H31.8396V24.3839H30.4316V22.9766Z" fill="white"/>
<path d="M28.7676 21.2812H30.1756V22.6886H28.7676V21.2812Z" fill="white"/>
<path d="M32.1279 14.5312H33.5359V15.9386H32.1279V14.5312Z" fill="white"/>
<path d="M28.7676 16.2266H30.1756V17.6339H28.7676V16.2266Z" fill="white"/>
<path d="M30.4316 7.75195H31.8396V9.15932H30.4316V7.75195Z" fill="white"/>
<path d="M32.1279 19.5859H33.5359V20.9933H32.1279V19.5859Z" fill="white"/>
<path d="M32.1279 22.9766H33.5359V24.3839H32.1279V22.9766Z" fill="#F04E23"/>
<path d="M32.1279 21.2812H33.5359V22.6886H32.1279V21.2812Z" fill="white"/>
<path d="M32.1279 16.2266H33.5359V17.6339H32.1279V16.2266Z" fill="white"/>
<path d="M30.4316 9.44531H31.8396V10.8527H30.4316V9.44531Z" fill="white"/>
<path d="M30.4316 16.2266H31.8396V17.6339H30.4316V16.2266Z" fill="white"/>
<path d="M30.4316 14.5312H31.8396V15.9386H30.4316V14.5312Z" fill="white"/>
<path d="M62.9123 7.62305H61.9523H60.8643V8.58261H61.9523V12.133H62.9123V8.58261H64.0003V7.62305H62.9123Z" fill="white"/>
<path d="M60.064 8.58261V7.62305H56.832V8.58261V11.1734V12.133H57.824H60.064V11.1734H57.824V10.3738H59.52V9.41424H57.824V8.58261H60.064Z" fill="white"/>
<path d="M47.3923 8.19879V7.62305H45.4083V8.19879H44.7363V11.5573H45.4083V12.165H47.3923V11.5573H47.9363V8.19879H47.3923ZM46.9763 11.2054H45.6643V8.58261H46.9763V11.2054Z" fill="white"/>
<path d="M43.4236 8.19879V7.62305H40.6396V12.133H41.5996V10.4378H43.4236V9.89402H43.9036V8.19879H43.4236ZM42.9436 9.47821H41.5996V8.58261H42.9436V9.47821Z" fill="white"/>
<path d="M56.0316 9.31828V7.62305H55.0716V9.31828H53.7276V7.62305H52.7676V12.133H53.7276V10.4378H55.0716V12.133H56.0316V10.4378H55.5196V9.31828H56.0316Z" fill="white"/>
<path d="M51.9683 9.31828V8.19879H51.4243V7.62305H49.4083V8.19879H48.7363V11.5573H49.4083V12.133H51.4243V11.5573H51.9683V10.4698H51.0083V11.1734H49.6963V8.58261H51.0083V9.31828H51.9683Z" fill="white"/>
<path d="M54.9123 20.002H53.9523H52.8643V20.9615H53.9523V24.5119H54.9123V20.9615H56.0003V20.002H54.9123Z" fill="white"/>
<path d="M47.4236 20.5777V20.002H45.4396V20.5777H44.7676V23.9362H45.4396V24.5439H47.4236V23.9362H47.9676V20.5777H47.4236ZM47.0076 23.5843H45.6956V20.9935H47.0076V23.5843Z" fill="white"/>
<path d="M43.9044 20.9615V20.002H41.3444V20.6097H40.6084V22.2729H41.3444V22.7527H42.9444V23.5523H40.8324V24.5119H43.3604V23.9362H43.9044V22.2729H43.3604V21.7931H41.5684V20.9615H43.9044Z" fill="white"/>
<path d="M52.0318 20.9615V20.002H48.7998V20.9615V23.5523V24.5119H49.7598V23.5523V22.7527H51.4878V21.7931H49.7598V20.9615H52.0318Z" fill="white"/>
<path d="M56.4803 14.7877V13.8281H53.2803V14.7877V17.3785V18.3381H54.2403H56.4803V17.3785H54.2403V16.5469H55.9683V15.5873H54.2403V14.7877H56.4803Z" fill="white"/>
<path d="M60.6075 14.7877V13.8281H58.0475V14.4359H57.3115V16.0671H58.0475V16.5469H59.6475V17.3465H57.5355V18.3381H60.0635V17.7623H60.6075V16.0671H60.0635V15.5873H58.2715V14.7877H60.6075Z" fill="white"/>
<path d="M47.3919 14.4039V13.8281H45.2479V14.4039H44.6719V18.3381H45.6319V17.1226H47.0079V18.3381H47.9679V14.4039H47.3919ZM47.0079 16.1631H45.6639V14.7877H47.0079V16.1631Z" fill="white"/>
<path d="M42.3044 15.4914V16.4509H42.8804V17.3785H41.5684V14.7877H42.8804H43.4244V14.3719V13.8281H43.2964H41.2804V14.3719H40.6084V17.7304H41.2804V18.3381H43.2964V17.7304H43.8404V16.4509V15.4914H42.3044Z" fill="white"/>
<path d="M52.1598 13.8281V14.3719H51.6158H51.4878V14.9476H51.0398V15.5234H50.2078V14.9476H49.7598V14.3719H49.6318H49.0878V13.8281H48.7998V18.3381H49.6318H49.7598V16.6429H50.2078H50.4638V17.2186H50.4958H50.7518V16.6429H51.0398H51.4878V18.3381H51.6158H52.4478V13.8281H52.1598Z" fill="white"/>
</g>
<defs>
<clipPath id="clip0_21796_14434">
<rect width="64" height="17.7698" fill="white" transform="translate(0 7.19922)"/>
</clipPath>
</defs>
</svg>
