<svg width="64" height="14" viewBox="0 0 64 14" fill="none" xmlns="http://www.w3.org/2000/svg">
<g id="3-Oaks-Gaming 1" clip-path="url(#clip0_22635_8205)">
<g id="g949">
<g id="g900">
<path id="path2" fill-rule="evenodd" clip-rule="evenodd" d="M19.2028 1.1582H22.6051C22.4663 1.27665 22.3534 1.42652 22.2899 1.63925C21.8216 1.661 21.351 1.72868 20.8828 1.84713C20.3581 1.98008 19.9016 2.30158 19.9016 2.85514C19.9016 3.03402 19.9487 3.20323 20.0287 3.35069L20.024 3.23466L20.0945 3.1984C20.1581 3.16456 20.2263 3.13555 20.2922 3.10654C20.4616 3.03402 20.6381 2.97359 20.8145 2.92283C21.8498 2.62308 23.3745 2.62308 24.4098 2.92283C24.5863 2.97359 24.7628 3.03644 24.9322 3.10654C24.9981 3.13313 25.0663 3.16456 25.1298 3.1984L25.2004 3.23466L25.1957 3.35069C25.2757 3.20323 25.3228 3.03402 25.3228 2.85514C25.3228 2.30158 24.8663 1.97525 24.3416 1.84713C23.8428 1.72627 23.344 1.65375 22.8451 1.63683C22.9487 1.50146 23.1087 1.41444 23.2687 1.32983C23.3698 1.27423 23.471 1.22105 23.5628 1.1582H26.0216C26.3557 1.1582 26.6287 1.43861 26.6287 1.78186V11.8596C26.6287 12.2028 26.3557 12.4832 26.0216 12.4832H19.2028C18.8687 12.4832 18.5957 12.2028 18.5957 11.8596V1.78186C18.5934 1.43861 18.8663 1.1582 19.2028 1.1582ZM23.1204 6.0653C23.984 5.5601 24.3793 4.97753 24.4287 4.01303C24.0781 5.19267 23.5651 5.76314 23.1204 6.0653ZM20.2075 4.55692C20.3298 6.24904 22.1087 6.39165 22.6122 7.3489C23.1157 6.39165 24.8945 6.2466 25.0169 4.55692L25.0734 3.30959C23.8569 2.65934 21.3698 2.65934 20.1534 3.30959L20.2075 4.55692Z" fill="url(#paint0_linear_22635_8205)"/>
<path id="path4" fill-rule="evenodd" clip-rule="evenodd" d="M9.90394 1.1582H16.7228C17.0569 1.1582 17.3298 1.43861 17.3298 1.78186V11.8596C17.3298 12.2028 17.0569 12.4832 16.7228 12.4832H9.90394C9.56981 12.4832 9.29688 12.2028 9.29688 11.8596V1.78186C9.29688 1.43861 9.56981 1.1582 9.90394 1.1582ZM13.8592 8.91047C14.7228 8.40524 15.1181 7.82267 15.1675 6.85817C14.8169 8.03781 14.3039 8.60831 13.8592 8.91047ZM10.911 7.49392C11.0333 9.18604 12.8122 9.33106 13.3157 10.2859C13.8192 9.32865 15.598 9.18361 15.7204 7.49392L15.7769 6.2466C14.5604 5.59635 12.0733 5.59635 10.8569 6.2466L10.911 7.49392ZM12.9934 4.57626C12.5251 4.59801 12.0545 4.66569 11.5863 4.78414C11.0616 4.9171 10.6051 5.2386 10.6051 5.79214C10.6051 5.97103 10.6522 6.14024 10.7322 6.28769L10.7275 6.17167L10.7981 6.13542C10.8616 6.10158 10.9298 6.07255 10.9957 6.04356C11.1651 5.97103 11.3416 5.9106 11.5181 5.85982C12.5533 5.5601 14.0781 5.5601 15.1133 5.85982C15.2898 5.9106 15.4663 5.97344 15.6357 6.04356C15.7016 6.07015 15.7698 6.10158 15.8333 6.13542L15.9039 6.17167L15.8992 6.28769C15.9792 6.14024 16.0263 5.97103 16.0263 5.79214C16.0263 5.2386 15.5698 4.91226 15.0451 4.78414C14.5463 4.66328 14.0475 4.59076 13.5487 4.57385C13.6522 4.43846 13.8122 4.35144 13.9722 4.26685C14.3251 4.07587 14.6687 3.88974 14.711 3.35552C14.0569 3.44013 14.3863 3.4087 13.7416 3.81722C13.431 3.98644 13.1133 4.15808 12.9934 4.57626Z" fill="url(#paint1_linear_22635_8205)"/>
<path id="path6" fill-rule="evenodd" clip-rule="evenodd" d="M0.60706 1.1582H1.58824L1.61176 1.68759C1.73412 3.37969 3.51295 3.52232 4.01648 4.47958C4.51999 3.52232 6.29882 3.37728 6.42118 1.68759L6.44471 1.1582H7.42587C7.76 1.1582 8.03293 1.43861 8.03293 1.78186V11.8596C8.03293 12.2028 7.76 12.4832 7.42587 12.4832H6.44706L6.47765 11.8136C5.26117 11.1634 2.77412 11.1634 1.55765 11.8136L1.58824 12.4832H0.60706C0.272941 12.4856 0 12.2028 0 11.8596V1.78186C0 1.43861 0.272941 1.1582 0.60706 1.1582ZM5.87999 1.1582C5.53413 2.16621 5.06588 2.67626 4.65413 2.95425C5.43765 2.49496 5.8353 1.97041 5.93883 1.1582H5.87999ZM3.69648 10.1457C3.22823 10.1674 2.75765 10.2351 2.28941 10.3536C1.76471 10.4865 1.30824 10.808 1.30824 11.3616C1.30824 11.5405 1.35529 11.7097 1.43529 11.8571L1.43059 11.7411L1.50118 11.7049C1.56471 11.671 1.63294 11.642 1.69882 11.613C1.86824 11.5405 2.04471 11.48 2.22118 11.4293C3.25647 11.1295 4.78117 11.1295 5.81647 11.4293C5.99295 11.48 6.1694 11.5429 6.33883 11.613C6.4047 11.6396 6.47295 11.671 6.53647 11.7049L6.60706 11.7411L6.60236 11.8571C6.68236 11.7097 6.7294 11.5405 6.7294 11.3616C6.7294 10.808 6.27293 10.4817 5.74825 10.3536C5.24942 10.2327 4.75058 10.1602 4.25175 10.1433C4.35528 10.0079 4.51528 9.92088 4.67528 9.83629C5.02825 9.64531 5.37175 9.45917 5.41412 8.92497C4.76001 9.00956 5.08942 8.97815 4.44471 9.38668C4.13412 9.55348 3.81647 9.72509 3.69648 10.1457Z" fill="url(#paint2_linear_22635_8205)"/>
</g>
<g id="g929">
<path id="path8" fill-rule="evenodd" clip-rule="evenodd" d="M33.2136 7.67339C34.5808 7.67339 35.4208 6.80075 35.4208 5.61386V5.59696C35.4208 4.42698 34.6066 3.97736 33.7738 3.83232L35.3245 2.31185V1.26758H31.1809V2.45447H33.5903L32.1267 3.96528L32.336 4.84759H32.8962C33.6492 4.84759 34.096 5.13525 34.096 5.6477V5.66464C34.096 6.13359 33.7361 6.4285 33.2278 6.4285C32.6067 6.4285 32.1689 6.15775 31.7478 5.67189L30.8232 6.58562C31.348 7.22378 32.1103 7.67339 33.2136 7.67339Z" fill="white"/>
<g id="g906">
<path id="path10" fill-rule="evenodd" clip-rule="evenodd" d="M42.2701 7.67281C44.1617 7.67281 45.536 6.20551 45.536 4.4143V4.39737C45.536 2.60616 44.1782 1.1582 42.2865 1.1582C40.3948 1.1582 39.0205 2.6255 39.0205 4.4143V4.43121C39.0205 6.22485 40.3784 7.67281 42.2701 7.67281ZM42.2865 6.39405C41.1993 6.39405 40.4299 5.49483 40.4299 4.4143V4.39737C40.4299 3.31685 41.1829 2.43695 42.2701 2.43695C43.3572 2.43695 44.1266 3.33618 44.1266 4.41671V4.43364C44.1266 5.51417 43.3736 6.39405 42.2865 6.39405Z" fill="white"/>
<path id="path12" fill-rule="evenodd" clip-rule="evenodd" d="M45.8164 7.56368H47.1904L47.7503 6.15197H50.3434L50.9033 7.56368H52.3127L49.6893 1.2207H48.4447L45.8164 7.56368ZM48.2351 4.92883L49.0493 2.88622L49.8634 4.92883H48.2351Z" fill="white"/>
<path id="path14" fill-rule="evenodd" clip-rule="evenodd" d="M53.2607 7.56462H54.6113V5.64046L55.3195 4.88384L57.2205 7.56462H58.8395L56.2299 3.93869L58.7265 1.26758H57.0982L54.6113 4.02089V1.26758H53.2607V7.56462Z" fill="white"/>
<path id="path16" fill-rule="evenodd" clip-rule="evenodd" d="M61.7474 7.65607C63.0699 7.65607 63.9993 6.95508 63.9993 5.70291V5.68598C63.9993 4.58852 63.2981 4.12925 62.0558 3.79566C60.9969 3.51767 60.7333 3.3823 60.7333 2.96895V2.94961C60.7333 2.64261 61.004 2.40088 61.5217 2.40088C62.0394 2.40088 62.5734 2.63536 63.1146 3.02213L63.8158 1.97786C63.1945 1.46539 62.4321 1.17773 61.5381 1.17773C60.2864 1.17773 59.3921 1.93435 59.3921 3.07531V3.09223C59.3921 4.34198 60.1899 4.69489 61.4251 5.01882C62.4511 5.28955 62.6604 5.46844 62.6604 5.81893V5.83587C62.6604 6.20571 62.3288 6.4305 61.7757 6.4305C61.0745 6.4305 60.498 6.13319 59.9452 5.66664L59.1475 6.64807C59.8818 7.32248 60.8205 7.65607 61.7474 7.65607Z" fill="white"/>
</g>
<g id="g914">
<path id="path18" fill-rule="evenodd" clip-rule="evenodd" d="M32.1686 12.4855C32.637 12.4855 32.9992 12.297 33.2629 12.0674V10.9264H32.1499V11.4268H32.7169V11.8014C32.5733 11.9078 32.3924 11.9586 32.1876 11.9586C31.7334 11.9586 31.4134 11.6057 31.4134 11.1246V11.1174C31.4134 10.6701 31.7382 10.2979 32.1477 10.2979C32.4442 10.2979 32.6206 10.3946 32.8157 10.5638L33.1711 10.1239C32.9052 9.89179 32.6251 9.76367 32.1664 9.76367C31.3921 9.76367 30.8252 10.3752 30.8252 11.1246V11.1319C30.8229 11.9102 31.3712 12.4855 32.1686 12.4855Z" fill="white"/>
<path id="path20" fill-rule="evenodd" clip-rule="evenodd" d="M37.0957 12.4404H37.6697L37.9028 11.8505H38.9851L39.2182 12.4404H39.8064L38.7099 9.79102H38.1899L37.0957 12.4404ZM38.1053 11.3405L38.4462 10.4872L38.7875 11.3405H38.1053Z" fill="white"/>
<path id="path22" fill-rule="evenodd" clip-rule="evenodd" d="M43.7188 12.4406H44.2693V10.734L44.9823 11.8483H44.9988L45.7189 10.7243V12.4406H46.2788V9.81055H45.6719L44.9988 10.9225L44.3259 9.81055H43.7188V12.4406Z" fill="white"/>
<path id="path24" d="M50.995 9.81055H50.4326V12.4406H50.995V9.81055Z" fill="white"/>
<path id="path26" fill-rule="evenodd" clip-rule="evenodd" d="M55.1475 12.4406H55.7051V10.7678L56.9451 12.4406H57.4229V9.81055H56.8675V11.4301L55.6674 9.81055H55.1475V12.4406Z" fill="white"/>
<path id="path28" fill-rule="evenodd" clip-rule="evenodd" d="M62.7835 12.4855C63.2516 12.4855 63.6141 12.297 63.8774 12.0674V10.9264H62.7645V11.4268H63.3317V11.8014C63.1882 11.9078 63.0069 11.9586 62.8022 11.9586C62.3482 11.9586 62.0257 11.6057 62.0257 11.1246V11.1174C62.0257 10.6701 62.3505 10.2979 62.76 10.2979C63.0565 10.2979 63.2329 10.3946 63.428 10.5638L63.7834 10.1239C63.5175 9.89179 63.2374 9.76367 62.7787 9.76367C62.0047 9.76367 61.4375 10.3752 61.4375 11.1246V11.1319C61.4375 11.9102 61.988 12.4855 62.7835 12.4855Z" fill="white"/>
</g>
</g>
</g>
</g>
<defs>
<linearGradient id="paint0_linear_22635_8205" x1="26.2339" y1="1.60221" x2="18.8102" y2="11.7371" gradientUnits="userSpaceOnUse">
<stop stop-color="#F8B900"/>
<stop offset="1" stop-color="#E67508"/>
</linearGradient>
<linearGradient id="paint1_linear_22635_8205" x1="16.9372" y1="1.60224" x2="9.51348" y2="11.7371" gradientUnits="userSpaceOnUse">
<stop stop-color="#F8B900"/>
<stop offset="1" stop-color="#E67508"/>
</linearGradient>
<linearGradient id="paint2_linear_22635_8205" x1="7.64004" y1="1.60221" x2="0.21631" y2="11.7371" gradientUnits="userSpaceOnUse">
<stop stop-color="#F8B900"/>
<stop offset="1" stop-color="#E67508"/>
</linearGradient>
<clipPath id="clip0_22635_8205">
<rect width="64" height="12.4444" fill="white" transform="translate(0 0.599609)"/>
</clipPath>
</defs>
</svg>
