<svg width="64" height="32" viewBox="0 0 64 32" fill="none" xmlns="http://www.w3.org/2000/svg">
<path fill-rule="evenodd" clip-rule="evenodd" d="M54.0047 14.3988C54.0317 14.4107 54.0584 14.4234 54.0836 14.437C54.221 14.5069 54.3483 14.5951 54.4619 14.6993C54.6419 14.8576 54.7842 15.0538 54.8785 15.2736C54.9567 15.4577 55.0002 15.6546 55.0069 15.8544V15.875L60.6521 9.44478C60.8098 9.2649 60.8336 9.10344 60.7611 8.96798C60.7573 8.96688 60.7538 8.96494 60.7509 8.96231C60.7483 8.95968 60.746 8.95643 60.7446 8.95281C60.7376 8.93728 60.7295 8.92241 60.7196 8.90838C60.6993 8.88352 60.6767 8.86066 60.6521 8.84011C60.6077 8.81208 60.5556 8.79846 60.5031 8.80111H58.402C58.2263 8.801 58.0504 8.81513 57.877 8.84337C57.301 9.0519 56.7853 9.3988 56.376 9.8533C55.5168 10.8334 54.7683 12.4325 54.2462 13.7484L54.0047 14.3988ZM55.8423 11.1764C55.7397 11.4157 55.6562 11.6624 55.5919 11.9144C55.5498 12.0845 55.5159 12.2568 55.4855 12.4313C55.4724 12.5146 55.4591 12.5982 55.4472 12.6805C55.4171 12.9308 55.391 13.1811 55.3779 13.439C55.3684 13.6233 55.3553 13.8037 55.3423 13.983C55.3368 14.0546 55.3315 14.1261 55.3266 14.1976C55.3124 14.3742 55.2918 14.5508 55.2669 14.7264C55.2634 14.7546 55.2585 14.7827 55.2539 14.8109C55.2518 14.825 55.2495 14.839 55.2475 14.8532C55.2054 15.1302 55.1472 15.4046 55.0721 15.6745C55.2237 15.4198 55.3434 15.1476 55.4287 14.864L56.4598 13.4715L57.0036 12.7423L55.5487 14.4099C55.5606 14.3504 55.5713 14.2908 55.582 14.2312C55.6029 14.1228 55.6191 14.0144 55.6333 13.9061L56.994 12.0531L55.6803 13.542C55.6809 13.5327 55.6823 13.5232 55.6838 13.5136C55.6864 13.4987 55.689 13.4835 55.689 13.4683L55.729 13.0674L55.7365 13.0739L56.7024 11.7334L56.9068 11.4484L56.6578 11.7323L55.7748 12.7141C55.7942 12.5552 55.8183 12.3969 55.8467 12.2394L56.8914 10.7711L55.9281 11.832C55.9716 11.6413 56.0203 11.4527 56.0803 11.2674C56.2415 10.7904 56.4369 10.3255 56.6641 9.87606C56.3241 10.2643 56.047 10.703 55.8423 11.1764Z" fill="white"/>
<path d="M22.4323 11.6782C22.3327 11.6782 22.2556 11.6466 22.2013 11.5834C22.1468 11.5111 22.1287 11.4253 22.1468 11.326L22.4188 10.0661C22.4369 9.96678 22.4867 9.8855 22.5683 9.82228C22.6589 9.75003 22.7496 9.71391 22.8402 9.71391H24.5396C24.6393 9.71391 24.7163 9.75003 24.7708 9.82228C24.8251 9.8855 24.8433 9.96678 24.8251 10.0661L24.5396 11.326C24.5306 11.4253 24.4852 11.5111 24.4037 11.5834C24.3221 11.6466 24.2315 11.6782 24.1318 11.6782H22.4323Z" fill="white"/>
<path d="M20.7193 19.698C20.6196 19.698 20.5426 19.6664 20.4882 19.6032C20.4429 19.5309 20.4293 19.4496 20.4474 19.3593L21.7933 12.9923C21.8115 12.9019 21.8613 12.8252 21.9429 12.762C22.0245 12.6897 22.1151 12.6536 22.2148 12.6536H23.9142C24.0139 12.6536 24.0864 12.6852 24.1318 12.7484C24.1861 12.8116 24.2042 12.8929 24.1861 12.9923L22.8266 19.3593C22.8085 19.4587 22.7586 19.5399 22.6771 19.6032C22.6046 19.6664 22.5185 19.698 22.4187 19.698H20.7193Z" fill="white"/>
<path fill-rule="evenodd" clip-rule="evenodd" d="M3.26817 19.6302C3.31349 19.6754 3.37694 19.698 3.45851 19.698H5.32107C5.53859 19.698 5.7108 19.5986 5.83769 19.4L6.62622 18.0859H10.1746L10.3921 19.3729C10.4284 19.5896 10.5689 19.698 10.8136 19.698H12.5402C12.6399 19.698 12.7214 19.6619 12.7849 19.5896C12.8484 19.5174 12.8755 19.418 12.8664 19.2916L11.5477 10.608C11.5115 10.3461 11.3574 10.2151 11.0855 10.2151H8.88306C8.62019 10.2151 8.41174 10.3461 8.25766 10.608L3.24098 19.2916C3.21379 19.3458 3.2002 19.3954 3.2002 19.4406C3.2002 19.5128 3.22286 19.5761 3.26817 19.6302ZM10.0387 16.0539H7.61867L9.56281 12.5994L10.0387 16.0539Z" fill="white"/>
<path d="M14.6686 19.6167C14.7229 19.6709 14.8136 19.698 14.9405 19.698H16.4903C16.6172 19.698 16.7169 19.6709 16.7895 19.6167C16.871 19.5535 16.9481 19.4677 17.0206 19.3593L20.9224 13.0735C20.9677 13.0013 20.9904 12.9381 20.9904 12.8839C20.9904 12.8116 20.9677 12.7575 20.9224 12.7213C20.8771 12.6762 20.8136 12.6536 20.7321 12.6536H18.9919C18.8016 12.6536 18.652 12.7484 18.5433 12.9381L16.1777 16.9886L15.5659 12.9652C15.5387 12.8658 15.4979 12.7891 15.4435 12.7349C15.3982 12.6807 15.3166 12.6536 15.1988 12.6536H13.6761C13.5401 12.6536 13.4405 12.6897 13.377 12.762C13.3226 12.8342 13.3045 12.929 13.3226 13.0464L14.5598 19.3593C14.587 19.4677 14.6232 19.5535 14.6686 19.6167Z" fill="white"/>
<path fill-rule="evenodd" clip-rule="evenodd" d="M24.9838 19.2238C25.4007 19.6302 25.9898 19.8334 26.7512 19.8334C27.2315 19.8334 27.6303 19.7612 27.9475 19.6167C28.2648 19.4632 28.582 19.2374 28.8992 18.9394L28.8041 19.3593C28.7859 19.4496 28.8041 19.5309 28.8584 19.6032C28.9128 19.6664 28.9899 19.698 29.0895 19.698H30.7074C30.798 19.698 30.8842 19.6664 30.9657 19.6032C31.0473 19.5399 31.0971 19.4587 31.1153 19.3593L32.4747 12.9923C32.493 12.9019 32.4747 12.8252 32.4205 12.762C32.366 12.6897 32.2889 12.6536 32.1892 12.6536H30.5851C30.4854 12.6536 30.3947 12.6852 30.3132 12.7484C30.2407 12.8116 30.1953 12.8929 30.1772 12.9923L30.0956 13.3309C29.9053 13.069 29.6651 12.8703 29.3751 12.7349C29.0851 12.5904 28.6862 12.5181 28.1787 12.5181C27.2632 12.5181 26.511 12.7981 25.9218 13.358C25.3327 13.909 24.9067 14.6856 24.6439 15.6881L24.4399 16.6499C24.3946 16.8847 24.372 17.1557 24.372 17.4627C24.372 18.2214 24.5759 18.8084 24.9838 19.2238ZM28.7225 17.5847C28.4777 17.8285 28.156 17.9504 27.7572 17.9504C27.4491 17.9504 27.2315 17.8737 27.1047 17.7201C26.9778 17.5666 26.9143 17.3453 26.9143 17.0563C26.9143 16.9118 26.9279 16.7583 26.9551 16.5957C26.9823 16.3428 27.0412 16.0629 27.1318 15.7558C27.2587 15.3314 27.4355 15.0017 27.662 14.7669C27.8886 14.5231 28.1968 14.4011 28.5865 14.4011C28.9037 14.4011 29.1349 14.4824 29.2799 14.645C29.4249 14.8076 29.4974 15.0288 29.4974 15.3088C29.4974 15.372 29.4884 15.4759 29.4702 15.6203C29.4249 15.9184 29.3524 16.257 29.2527 16.6364C29.153 17.0157 28.9763 17.3318 28.7225 17.5847Z" fill="white"/>
<path d="M36.4025 19.698C34.7075 19.698 33.8599 19.0658 33.8599 17.8014C33.8599 17.5485 33.8918 17.2821 33.9552 17.0022L34.4854 14.496H33.4251C33.3253 14.496 33.2482 14.4644 33.1937 14.4012C33.1395 14.3289 33.1259 14.2476 33.1531 14.1573L33.3842 12.9923C33.4021 12.9019 33.452 12.8252 33.5338 12.762C33.6152 12.6897 33.7059 12.6536 33.8057 12.6536H34.8797L35.3554 10.4183C35.3736 10.319 35.4235 10.2377 35.505 10.1745C35.5867 10.1113 35.6728 10.0797 35.7633 10.0797H37.4356C37.5353 10.0797 37.6078 10.1158 37.653 10.1881C37.7075 10.2513 37.7255 10.328 37.7075 10.4183L37.2315 12.6536H38.9311C39.0308 12.6536 39.1033 12.6852 39.1485 12.7484C39.203 12.8116 39.221 12.8929 39.203 12.9923L38.9584 14.1573C38.9401 14.2566 38.8902 14.3379 38.8088 14.4012C38.727 14.4644 38.6409 14.496 38.5505 14.496H36.8373L36.3479 16.799C36.3117 16.9525 36.2935 17.106 36.2935 17.2595C36.2935 17.4311 36.3343 17.5576 36.4158 17.6388C36.5065 17.7202 36.6561 17.7608 36.8645 17.7608H37.9658C38.0655 17.7608 38.138 17.7969 38.1832 17.8692C38.2377 17.9324 38.256 18.0137 38.2377 18.113L37.9658 19.3593C37.9475 19.4587 37.8977 19.5399 37.8162 19.6032C37.7348 19.6664 37.6487 19.698 37.5579 19.698H36.4025Z" fill="white"/>
<path d="M39.1041 19.6032C39.1583 19.6664 39.2354 19.698 39.3351 19.698H41.1298C41.2292 19.698 41.3203 19.6664 41.4014 19.6032C41.4832 19.5399 41.533 19.4587 41.5513 19.3593L42.2853 15.9455C42.3577 15.5842 42.5117 15.3043 42.7476 15.1056C42.983 14.9069 43.2822 14.8076 43.6448 14.8076H45.018C45.1177 14.8076 45.2082 14.7759 45.2899 14.7127C45.3714 14.6405 45.4169 14.5592 45.4259 14.4689L45.7384 12.9923C45.7566 12.8929 45.7384 12.8116 45.6842 12.7484C45.6389 12.6852 45.5708 12.6536 45.4801 12.6536H44.6919C44.2205 12.6536 43.8214 12.7304 43.4955 12.8839C43.1691 13.0284 42.8879 13.2406 42.6523 13.5206L42.761 13.0058C42.7792 12.9065 42.761 12.8252 42.7068 12.762C42.6615 12.6897 42.5888 12.6536 42.4891 12.6536H40.8306C40.7309 12.6536 40.6402 12.6897 40.5587 12.762C40.477 12.8252 40.4271 12.9065 40.4091 13.0058L39.0632 19.3593C39.0449 19.4496 39.0586 19.5309 39.1041 19.6032Z" fill="white"/>
<path d="M47.3413 11.6782C47.2413 11.6782 47.1642 11.6466 47.1103 11.5834C47.0558 11.5111 47.0375 11.4253 47.0558 11.326L47.3274 10.0661C47.3457 9.96678 47.3956 9.8855 47.4773 9.82228C47.5677 9.75003 47.6585 9.71391 47.7489 9.71391H49.4482C49.5482 9.71391 49.6253 9.75003 49.6796 9.82228C49.7341 9.8855 49.752 9.96678 49.7341 10.0661L49.4482 11.326C49.4392 11.4253 49.3943 11.5111 49.3126 11.5834C49.2311 11.6466 49.1401 11.6782 49.0406 11.6782H47.3413Z" fill="white"/>
<path d="M45.6283 19.698C45.5289 19.698 45.4518 19.6664 45.3973 19.6032C45.3518 19.5309 45.3384 19.4496 45.3567 19.3593L46.7024 12.9923C46.7203 12.9019 46.7702 12.8252 46.8519 12.762C46.9334 12.6897 47.0241 12.6536 47.1238 12.6536H48.8231C48.9232 12.6536 48.9953 12.6852 49.0408 12.7484C49.0953 12.8116 49.1136 12.8929 49.0953 12.9923L47.7358 19.3593C47.7175 19.4587 47.668 19.5399 47.5862 19.6032C47.5137 19.6664 47.4276 19.698 47.3276 19.698H45.6283Z" fill="white"/>
<path fill-rule="evenodd" clip-rule="evenodd" d="M50.2489 13.1372L51.5682 15.7792C51.5471 15.8829 51.5357 15.9902 51.5357 16.1001C51.5357 16.9825 52.2538 17.6979 53.1397 17.6979C54.0253 17.6979 54.743 16.9825 54.743 16.1001C54.743 15.3342 54.2021 14.6943 53.4803 14.5385L52.6277 12.9069C52.5556 12.7443 52.4329 12.6631 52.2607 12.6631H50.5751C50.4753 12.6631 50.3892 12.7037 50.3171 12.785C50.2533 12.8572 50.2217 12.9385 50.2217 13.0289C50.2217 13.0469 50.2307 13.083 50.2489 13.1372ZM53.1397 16.7093C53.4771 16.7093 53.7507 16.4365 53.7507 16.1001C53.7507 15.7636 53.4771 15.4908 53.1397 15.4908C52.802 15.4908 52.528 15.7636 52.528 16.1001C52.528 16.4365 52.802 16.7093 53.1397 16.7093Z" fill="white"/>
<path fill-rule="evenodd" clip-rule="evenodd" d="M52.2422 17.8037C52.2677 17.8173 52.2938 17.83 52.3211 17.8419L52.0799 18.4923C51.5575 19.8083 50.8093 21.4073 49.9498 22.3874C49.5408 22.8419 49.0251 23.1888 48.4491 23.3973C48.2754 23.4256 48.0998 23.4397 47.9238 23.4396H45.8227C45.7702 23.4422 45.7184 23.4286 45.6737 23.4006C45.6494 23.3801 45.6268 23.3572 45.6065 23.3323C45.5966 23.3183 45.5882 23.3034 45.5815 23.2879C45.5801 23.2843 45.5778 23.281 45.5752 23.2784C45.5723 23.2758 45.5688 23.2738 45.565 23.2727C45.4922 23.1373 45.5163 22.9758 45.6737 22.7959L51.3192 16.3657V16.3863C51.3259 16.5861 51.3694 16.783 51.4476 16.9671C51.5416 17.1869 51.6842 17.3831 51.8639 17.5414C51.9773 17.6456 52.1048 17.7338 52.2422 17.8037ZM50.7342 20.3263C50.6699 20.5783 50.5858 20.825 50.4838 21.0643C50.2791 21.5377 50.002 21.9764 49.6617 22.3647C49.8892 21.9152 50.0843 21.4503 50.2458 20.9733C50.3058 20.788 50.3545 20.5994 50.398 20.4087L49.4347 21.4696L50.4794 20.0013C50.5078 19.8438 50.5316 19.6855 50.5513 19.5266L49.6683 20.5084L49.4193 20.7923L49.6237 20.5073L50.5896 19.1669L50.5971 19.1734L50.6371 18.7724C50.6371 18.7572 50.6397 18.742 50.6418 18.7271C50.6438 18.7175 50.6452 18.708 50.6458 18.6987L49.3321 20.1876L50.6928 18.3346C50.707 18.2263 50.7232 18.1179 50.7441 18.0096C50.7545 17.95 50.7655 17.8904 50.7774 17.8308L49.3222 19.4985L49.8663 18.7692L50.8969 17.3767C50.9824 17.0931 51.1024 16.8209 51.2537 16.5662C51.1786 16.8361 51.1204 17.1105 51.0786 17.3875C51.0766 17.4017 51.0743 17.4157 51.0722 17.4298C51.0673 17.458 51.0627 17.4861 51.0589 17.5143C51.0343 17.6899 51.0137 17.8665 50.9995 18.0431C50.9943 18.1146 50.9893 18.186 50.9838 18.2577C50.9708 18.437 50.9577 18.6174 50.9482 18.8017C50.9351 19.0596 50.909 19.3099 50.8789 19.5602C50.8667 19.6425 50.8537 19.7259 50.8406 19.8092C50.8102 19.9837 50.7763 20.1562 50.7342 20.3263Z" fill="white"/>
<path d="M53.1397 18.0082C53.831 18.0082 54.4372 17.6428 54.7738 17.0951L55.8399 19.2296C55.8579 19.2838 55.8669 19.3199 55.8669 19.338C55.8669 19.4283 55.8353 19.5096 55.7721 19.5818C55.6994 19.6631 55.6133 19.7038 55.5135 19.7038H53.8279C53.6557 19.7038 53.533 19.6225 53.4609 19.4599L52.6721 17.9511C52.822 17.9884 52.9782 18.0082 53.1397 18.0082Z" fill="white"/>
</svg>
