<svg width="64" height="32" viewBox="0 0 64 32" fill="none" xmlns="http://www.w3.org/2000/svg">
<g clip-path="url(#clip0_21796_14402)">
<path d="M46.3213 14.3856L47.6012 14.0273V14.8144C48.6891 13.6689 50.1993 13.8737 50.5897 14.8528C50.6345 14.8528 50.6665 14.8528 50.6921 14.8144C50.9303 14.4743 51.2724 14.2207 51.667 14.0914C52.0616 13.9622 52.4874 13.9644 52.8807 14.0977C53.1155 14.1556 53.3292 14.279 53.4968 14.4534C53.6644 14.6278 53.7792 14.8462 53.8278 15.0832C53.9151 15.4174 53.9581 15.7616 53.9558 16.1071C53.9558 17.2782 53.9558 18.4429 53.9558 19.6139C53.9585 19.6672 53.9585 19.7206 53.9558 19.7739H52.5415C52.4943 19.6675 52.4809 19.5491 52.5031 19.4348V16.2735V16.1519C52.4519 15.5119 52.2535 15.3072 51.7544 15.32C51.6348 15.3224 51.5168 15.3487 51.4075 15.3971C51.2981 15.4456 51.1994 15.5153 51.1172 15.6023C51.0351 15.6892 50.971 15.7916 50.9288 15.9036C50.8865 16.0155 50.867 16.1347 50.8713 16.2543C50.8713 17.3166 50.8713 18.3853 50.8713 19.454V19.7995H49.4634C49.393 19.6843 49.4314 19.5692 49.425 19.454C49.3866 18.3405 49.5018 17.227 49.3866 16.1135C49.3226 15.5183 49.137 15.3264 48.6571 15.3456C48.4265 15.3574 48.2083 15.4531 48.0433 15.6145C47.8783 15.7759 47.778 15.9921 47.7612 16.2223C47.7612 17.2974 47.7612 18.3725 47.7612 19.422V19.7995H46.3533L46.3213 14.3856Z" fill="white"/>
<path d="M40.6511 14.6088C40.6546 14.5513 40.6546 14.4936 40.6511 14.436C39.6277 13.9871 38.4784 13.9145 37.4066 14.2313C37.0952 14.3261 36.8094 14.4907 36.571 14.7124C36.3326 14.9342 36.1479 15.2073 36.0308 15.5111C35.6837 16.4383 35.6611 17.4557 35.9668 18.3973C36.0572 18.7064 36.224 18.9879 36.4517 19.2157C36.6794 19.4435 36.9608 19.6104 37.27 19.7009C37.5791 19.7914 37.9061 19.8027 38.2207 19.7337C38.5354 19.6647 38.8276 19.5176 39.0705 19.306C39.1089 19.306 39.1409 19.2292 39.2177 19.2676C39.259 19.4983 39.259 19.7344 39.2177 19.9651C39.1949 20.1424 39.1152 20.3075 38.9906 20.4355C38.8659 20.5636 38.7031 20.6478 38.5265 20.6755C38.2711 20.7213 38.0114 20.7385 37.7522 20.7266C37.3623 20.676 36.9785 20.586 36.6067 20.4579V21.7186C37.1629 21.9038 37.7496 21.9799 38.3346 21.9425C38.6695 21.9489 39.003 21.8969 39.3201 21.7889C39.7508 21.6483 40.1207 21.3649 40.3685 20.9856C40.6164 20.6063 40.7274 20.1537 40.6831 19.7027C40.6575 18.0133 40.6511 16.3111 40.6511 14.6088ZM39.2113 17.6805C39.1859 17.8973 39.0869 18.0988 38.9308 18.2514C38.7747 18.404 38.5711 18.4984 38.3538 18.5189C38.2386 18.5468 38.1188 18.5502 38.0022 18.5288C37.8856 18.5075 37.7748 18.4618 37.6771 18.3948C37.5793 18.3278 37.4967 18.241 37.4347 18.14C37.3726 18.039 37.3326 17.926 37.3171 17.8085C37.2018 17.3203 37.2018 16.812 37.3171 16.3239C37.3563 16.1257 37.4443 15.9404 37.5731 15.7847C37.702 15.629 37.8676 15.5079 38.0549 15.4324C38.2423 15.3568 38.4456 15.3291 38.6464 15.3518C38.8471 15.3745 39.0391 15.4468 39.2049 15.5623C39.2177 16.2855 39.2369 16.983 39.2113 17.6805Z" fill="white"/>
<path d="M26.3617 15.6137C26.3235 15.3536 26.2309 15.1046 26.0899 14.8828C25.9489 14.661 25.7628 14.4715 25.5435 14.3265C25.3243 14.1816 25.077 14.0845 24.8177 14.0416C24.5584 13.9988 24.293 14.0111 24.0388 14.0778C23.67 14.1596 23.3271 14.331 23.0404 14.577V11.8828L21.6006 12.2732V19.3829C22.5641 19.8115 23.6436 19.9039 24.6659 19.6453C25.0601 19.5568 25.4223 19.3612 25.7125 19.08C26.0027 18.7989 26.2096 18.4431 26.3105 18.0518C26.5417 17.2577 26.5593 16.4167 26.3617 15.6137ZM24.8323 17.879C24.7072 18.1601 24.4772 18.381 24.1914 18.4946C23.9056 18.6082 23.5867 18.6055 23.3028 18.487C23.226 18.487 23.1492 18.4358 23.0404 18.3974C23.0404 17.6615 23.0404 16.9511 23.0404 16.2472C23.0665 16.0277 23.1661 15.8236 23.323 15.6679C23.4798 15.5122 23.6847 15.4141 23.9044 15.3897C24.1197 15.3459 24.3437 15.3884 24.528 15.5081C24.7123 15.6278 24.8423 15.8151 24.8899 16.0296C25.0704 16.6362 25.0502 17.2849 24.8323 17.879Z" fill="white"/>
<path d="M45.4446 15.4925C45.4485 15.1698 45.3383 14.8561 45.1334 14.6067C44.9285 14.3573 44.6421 14.1883 44.3247 14.1295C43.3909 13.9448 42.424 14.0269 41.5346 14.3663V15.5565C41.637 15.5885 41.6946 15.5565 41.7586 15.5117C42.2565 15.3219 42.7876 15.2349 43.32 15.2558C43.9152 15.2942 44.12 15.5565 44.0496 16.1965L43.7232 16.2285C43.183 16.2616 42.6546 16.4007 42.1681 16.638C41.8012 16.8123 41.5062 17.1086 41.3334 17.4763C41.1607 17.8439 41.121 18.2601 41.221 18.6538C41.3388 19.0599 41.6114 19.4035 41.9801 19.6106C42.3487 19.8177 42.784 19.8716 43.192 19.7609C43.5045 19.6848 43.8105 19.5843 44.1072 19.4602C44.1903 19.5754 44.1072 19.697 44.1903 19.7609H45.4702C45.4702 18.3211 45.5278 16.9068 45.4446 15.4925ZM42.9361 18.4811C42.818 18.4518 42.7128 18.3846 42.6365 18.2898C42.5603 18.195 42.5171 18.0779 42.5137 17.9563C42.5137 17.6747 42.6801 17.5468 42.9105 17.47C43.2966 17.3361 43.7091 17.2966 44.1136 17.3548C44.184 18.1931 43.6144 18.7178 42.9361 18.4811Z" fill="white"/>
<path d="M59.3445 17.284C59.3751 16.7052 59.3537 16.1248 59.2806 15.5498C59.2404 15.3016 59.1448 15.0656 59.0007 14.8595C58.8567 14.6534 58.668 14.4825 58.4486 14.3595C58.1058 14.1605 57.7186 14.0505 57.3223 14.0395C56.1065 14.0011 55.1082 14.4107 54.7178 15.7098C54.4938 16.4744 54.4938 17.2873 54.7178 18.052C54.8366 18.4878 55.0896 18.8751 55.4409 19.1591C56.5608 20.1062 57.8087 19.799 59.0566 19.5686V18.3271C58.935 18.3655 58.8518 18.4039 58.7622 18.4231C58.1435 18.6429 57.4707 18.6586 56.8424 18.4679C56.6037 18.3807 56.4 18.2178 56.2625 18.004C56.125 17.7903 56.0612 17.5374 56.0809 17.284H59.3445ZM57.2711 15.1914C57.3997 15.2132 57.5222 15.262 57.6306 15.3346C57.7389 15.4073 57.8305 15.5021 57.8995 15.6128C57.9685 15.7235 58.0131 15.8475 58.0306 15.9768C58.048 16.106 58.0378 16.2375 58.0007 16.3625H56.0809C56.1257 15.5498 56.58 15.1146 57.2711 15.1914Z" fill="white"/>
<path d="M31.8013 15.8433C31.7877 15.415 31.6237 15.0053 31.3382 14.6858C31.0527 14.3664 30.6639 14.1576 30.2398 14.0962C29.7778 14.0078 29.3023 14.0187 28.8448 14.1282C28.4898 14.2055 28.1603 14.3717 27.8871 14.6112C27.614 14.8508 27.4062 15.1558 27.2833 15.4977C27.0272 16.2206 26.9763 17.0002 27.1361 17.7503C27.1993 18.2043 27.3961 18.6293 27.7015 18.9712C28.0069 19.3131 28.4071 19.5564 28.8512 19.6701C29.7367 19.8839 30.665 19.8395 31.5261 19.5421V18.3262C31.4173 18.3582 31.3277 18.3966 31.2446 18.4158C30.6696 18.6106 30.0526 18.646 29.4591 18.5182C29.1777 18.4567 28.9271 18.2977 28.7515 18.0694C28.5759 17.8411 28.4865 17.5581 28.4992 17.2703H31.8077C31.8077 16.7776 31.8397 16.3104 31.8013 15.8433ZM30.483 16.368H28.5632C28.5489 16.171 28.5869 15.9737 28.6734 15.7961C28.76 15.6185 28.892 15.467 29.056 15.3569C29.2146 15.2433 29.4048 15.1822 29.5999 15.1822C29.795 15.1822 29.9852 15.2433 30.1439 15.3569C30.2934 15.4736 30.4052 15.6316 30.4656 15.8114C30.5259 15.9912 30.5319 16.1848 30.483 16.368Z" fill="white"/>
<path d="M60.0092 19.4413V18.1614C60.3427 18.3181 60.6897 18.4445 61.0459 18.539C61.3053 18.6157 61.5781 18.6353 61.8458 18.5966C61.9553 18.5846 62.058 18.5377 62.1387 18.4628C62.2194 18.3879 62.2738 18.2889 62.2938 18.1806C62.345 17.9374 62.1978 17.8095 62.025 17.7007C61.6229 17.5224 61.2105 17.3686 60.7899 17.2399C60.5571 17.1325 60.3514 16.9741 60.1881 16.7764C60.0249 16.5787 59.9082 16.3468 59.8467 16.0979C59.7852 15.849 59.7806 15.5894 59.8331 15.3385C59.8856 15.0875 59.9939 14.8516 60.15 14.6482C60.3766 14.386 60.6819 14.2042 61.0203 14.1298C61.796 13.9793 62.5994 14.0755 63.3177 14.405V15.3969C63.321 15.4438 63.321 15.4908 63.3177 15.5377C62.9737 15.413 62.6207 15.3146 62.2618 15.2433C62.0364 15.1995 61.8037 15.2105 61.5834 15.2753C61.5032 15.2992 61.4315 15.3457 61.3771 15.4092C61.3226 15.4728 61.2876 15.5507 61.2763 15.6337C61.2683 15.7074 61.2831 15.7819 61.3185 15.847C61.3539 15.9122 61.4084 15.965 61.4747 15.9984C61.8356 16.2073 62.2231 16.3665 62.6265 16.472C62.9588 16.5869 63.2467 16.8031 63.4498 17.09C63.653 17.3769 63.7612 17.7203 63.7592 18.0718C63.7646 18.4073 63.6668 18.7364 63.4791 19.0145C63.2914 19.2926 63.0229 19.5063 62.7097 19.6269C61.8169 19.8949 60.857 19.8289 60.0092 19.4413Z" fill="white"/>
<path d="M33.9065 14.0395H34.924V15.2362H33.9769C33.8617 15.377 33.9065 15.505 33.9065 15.6266C33.9065 16.3305 33.9065 17.0409 33.9065 17.7512C33.9065 18.3527 34.1433 18.4807 34.7448 18.3911C34.7981 18.3879 34.8515 18.3879 34.9048 18.3911V19.6262C34.3625 19.8311 33.7641 19.8311 33.2218 19.6262C32.9585 19.505 32.7404 19.3034 32.5989 19.0505C32.4575 18.7975 32.4 18.5061 32.4346 18.2183C32.4346 16.7785 32.4346 15.345 32.4346 13.9052V12.6253L33.8809 12.2285L33.9065 14.0395Z" fill="white"/>
<path d="M12.7757 17.3359H12.7373H12.7949C12.7886 17.3371 12.782 17.3371 12.7757 17.3359Z" fill="#FAA103"/>
<path d="M12.5202 14.3908C12.3544 14.0293 12.1146 13.7066 11.8162 13.4437C11.3945 13.046 10.8862 12.7517 10.3314 12.584C9.77651 12.4163 9.1903 12.3797 8.6189 12.4771C8.04751 12.5745 7.50653 12.8032 7.0386 13.1453C6.57067 13.4874 6.18857 13.9335 5.9224 14.4484C5.58468 15.0885 5.44648 15.8152 5.52563 16.5346C5.54492 16.8794 5.62735 17.2178 5.76881 17.5329C5.80721 17.6289 5.8392 17.7313 5.884 17.8209C6.22832 18.5222 6.78413 19.0977 7.47302 19.4663C8.16192 19.8348 8.94913 19.9778 9.72363 19.8751C10.4265 19.788 11.0894 19.5002 11.633 19.0463C12.1766 18.5923 12.5779 17.9914 12.7889 17.3153H12.7505H12.8081C12.8599 17.2453 12.8849 17.159 12.8785 17.0721C13.0015 16.624 13.0331 16.1557 12.9715 15.6951C12.91 15.2345 12.7565 14.7909 12.5202 14.3908ZM9.23088 17.9105C8.78998 17.9109 8.36497 17.7458 8.03997 17.4479C7.71496 17.1499 7.51363 16.7408 7.47582 16.3016C7.43801 15.8623 7.56646 15.4248 7.83577 15.0757C8.10508 14.7266 8.49562 14.4913 8.93011 14.4164C9.028 14.4069 9.12659 14.4069 9.22448 14.4164C9.69122 14.4164 10.1388 14.6018 10.4689 14.9318C10.7989 15.2619 10.9843 15.7095 10.9843 16.1762C10.9843 16.643 10.7989 17.0906 10.4689 17.4206C10.1388 17.7506 9.69122 17.9361 9.22448 17.9361L9.23088 17.9105Z" fill="#FD9303"/>
<path d="M15.7473 13.262C15.5103 12.7408 14.8969 12.5098 14.3773 12.7461C13.8577 12.9823 13.6286 13.5964 13.8656 14.1176L16.1011 19.0343C16.3381 19.5555 16.9514 19.7865 17.471 19.5503C17.9906 19.314 18.2197 18.7 17.9828 18.1788L15.7473 13.262Z" fill="#FD9303"/>
<path d="M2.31073 13.264C2.07375 12.7428 1.46042 12.5118 0.94082 12.748C0.42122 12.9843 0.19211 13.5983 0.42909 14.1195L2.66459 19.0362C2.90157 19.5575 3.5149 19.7885 4.0345 19.5522C4.5541 19.316 4.78321 18.7019 4.54623 18.1807L2.31073 13.264Z" fill="#FD9303"/>
</g>
<defs>
<clipPath id="clip0_21796_14402">
<rect width="64" height="10.919" fill="white" transform="translate(0 11.1992)"/>
</clipPath>
</defs>
</svg>
