<svg id="smartsoft" width="64" height="32" viewBox="0 0 64 32" fill="none" xmlns="http://www.w3.org/2000/svg">
<g clip-path="url(#clip0_21796_14196)">
<path d="M60.5857 11.5582C60.3313 11.5582 60.0773 11.5683 59.8228 11.5531C59.6345 11.543 59.5634 11.5835 59.5684 11.796C59.5838 12.6919 59.5684 13.5828 59.5784 14.4786C59.5838 14.6963 59.5123 14.7519 59.309 14.7367C59.1261 14.7165 58.9378 14.7216 58.7495 14.7367C58.5665 14.7519 58.5258 14.6811 58.5258 14.509C58.5358 13.608 58.5208 12.7021 58.5358 11.8011C58.5411 11.5987 58.475 11.5278 58.2817 11.5582C58.256 11.5633 58.2306 11.5582 58.2053 11.5582C57.9816 11.543 57.6253 11.6543 57.5542 11.5177C57.4424 11.3051 57.5135 10.9964 57.5135 10.7281C57.5135 10.556 57.6507 10.6167 57.7372 10.6167C58.6276 10.6117 59.5177 10.6167 60.4078 10.6117C60.4689 10.6117 60.5246 10.6066 60.5857 10.6016C60.5857 10.9154 60.5857 11.2393 60.5857 11.5582Z" fill="white"/>
<path d="M31.716 12.3779C32.2297 11.8211 32.7333 11.2846 33.2165 10.7329C33.3487 10.5811 33.4912 10.6013 33.6488 10.5963C33.7608 10.5963 33.7353 10.6772 33.7353 10.738C33.7353 12.0185 33.7353 13.2991 33.7404 14.5847C33.7404 14.696 33.6997 14.7315 33.5929 14.7264C33.3487 14.7213 33.0995 14.7163 32.8554 14.7264C32.6977 14.7365 32.6519 14.6859 32.657 14.529C32.6672 13.9823 32.6621 13.4408 32.6621 12.8891C32.423 13.1168 32.189 13.3294 31.9653 13.5521C31.7109 13.8052 31.7211 13.8001 31.4719 13.5572C31.248 13.3396 31.0039 13.1371 30.7852 12.9448C30.7547 13.1067 30.7801 13.3396 30.7801 13.5673C30.775 13.8963 30.775 14.2253 30.7801 14.5543C30.7852 14.6859 30.7394 14.7315 30.6072 14.7264C30.3529 14.7163 30.0985 14.7163 29.8442 14.7264C29.717 14.7315 29.6865 14.6808 29.6865 14.5644C29.6916 13.2889 29.6865 12.0185 29.6916 10.7431C29.6916 10.6874 29.6662 10.6013 29.7527 10.6013C29.89 10.6013 30.0324 10.5406 30.1545 10.6772C30.4698 11.0316 30.7954 11.3757 31.1158 11.7199C31.3091 11.9375 31.5024 12.1451 31.716 12.3779Z" fill="white"/>
<path d="M48.6233 11.8621C48.5214 11.8621 48.4196 11.8571 48.3178 11.8621C48.1959 11.8722 48.1348 11.8419 48.0737 11.7153C47.9315 11.4117 47.2855 11.3661 47.0718 11.6243C46.9192 11.8115 46.9953 12.0747 47.2497 12.1405C47.4838 12.2013 47.7328 12.2164 47.9722 12.2569C48.1298 12.2822 48.2874 12.3126 48.44 12.3582C48.8773 12.4898 49.1725 12.7529 49.2539 13.2287C49.3351 13.7348 49.1928 14.1448 48.7809 14.4536C48.1502 14.9243 47.0211 14.9294 46.39 14.4688C46.1002 14.2612 45.9427 13.9727 45.8969 13.6235C45.8816 13.5122 45.9019 13.4514 46.0391 13.4565C46.2835 13.4666 46.5326 13.4615 46.7766 13.4565C46.8581 13.4565 46.9089 13.4767 46.955 13.5577C47.1583 13.9171 47.8093 13.993 48.1095 13.7045C48.2774 13.5425 48.2367 13.2945 48.023 13.173C47.8704 13.0921 47.7025 13.0769 47.5295 13.0668C47.199 13.0516 46.8735 13.0009 46.5733 12.8542C45.8051 12.4796 45.7136 11.4268 46.3954 10.8751C47.0007 10.3842 48.1145 10.3994 48.7148 10.9005C48.9488 11.0979 49.081 11.356 49.1317 11.6597C49.1571 11.8065 49.1317 11.8824 48.9588 11.8621C48.847 11.852 48.7351 11.8621 48.6233 11.8621Z" fill="white"/>
<path d="M28.3634 11.8618C28.277 11.8618 28.1956 11.8567 28.1091 11.8618C27.9819 11.8668 27.8904 11.8618 27.8192 11.7049C27.6819 11.4012 27.0155 11.3708 26.8172 11.639C26.6748 11.8314 26.7612 12.0895 27.0155 12.1503C27.2546 12.2059 27.4987 12.2211 27.7429 12.2616C27.8904 12.2869 28.043 12.3173 28.1854 12.3628C28.633 12.4944 28.9331 12.7627 29.0094 13.2486C29.0908 13.7648 28.928 14.1799 28.5008 14.4836C27.8853 14.9188 26.8223 14.9239 26.1916 14.5089C25.8762 14.3014 25.7032 14.0078 25.6473 13.6383C25.627 13.5118 25.6575 13.451 25.7999 13.4612C25.9576 13.4713 26.1203 13.4662 26.2831 13.4612C26.4815 13.4612 26.6442 13.4409 26.7816 13.6788C26.9443 13.9673 27.6259 13.9521 27.865 13.7041C28.0176 13.5472 27.9769 13.3043 27.7785 13.1878C27.6259 13.1018 27.4581 13.0866 27.2902 13.0765C27.0105 13.0664 26.7358 13.0259 26.4713 12.9246C26.0542 12.7677 25.7592 12.4995 25.7032 12.0389C25.6422 11.553 25.7897 11.138 26.1966 10.8394C26.807 10.394 27.8395 10.4142 28.4347 10.8798C28.694 11.0823 28.8314 11.3556 28.8822 11.6745C28.9077 11.8162 28.8772 11.8769 28.7195 11.8618C28.6025 11.8567 28.4804 11.8618 28.3634 11.8618Z" fill="white"/>
<path d="M54.6249 12.6717C54.6249 12.0542 54.6299 11.4418 54.6195 10.8243C54.6195 10.6724 54.6349 10.6016 54.8232 10.6016C55.5504 10.6117 56.2829 10.6117 57.0104 10.6016C57.1729 10.6016 57.2187 10.6522 57.2087 10.804C57.1987 10.9964 57.1987 11.1937 57.2087 11.3861C57.2137 11.5227 57.1629 11.5582 57.0307 11.5531C56.6391 11.5481 56.2525 11.5531 55.8609 11.5481C55.7437 11.5481 55.6929 11.5734 55.7033 11.6999C55.7183 11.9428 55.6268 12.2516 55.7437 12.4136C55.8559 12.5654 56.1864 12.449 56.4204 12.4591C56.6137 12.4692 56.8732 12.3984 56.985 12.4945C57.1172 12.6109 57 12.8792 57.0307 13.0766C57.0661 13.3347 56.985 13.4309 56.7102 13.4056C56.4354 13.3803 56.1507 13.4056 55.8709 13.3955C55.7337 13.3904 55.6979 13.436 55.6979 13.5676C55.7083 13.8864 55.6879 14.2103 55.7033 14.5292C55.7133 14.7064 55.6472 14.7418 55.4896 14.7367C55.2606 14.7266 55.0315 14.7266 54.8028 14.7367C54.6553 14.7418 54.6145 14.6912 54.6195 14.5495C54.6249 13.9218 54.6249 13.2943 54.6249 12.6717Z" fill="white"/>
<path d="M44.5333 13.1514C44.5333 13.6171 44.5279 14.0777 44.5383 14.5433C44.5383 14.6851 44.4976 14.7407 44.35 14.7306C44.1363 14.7205 43.923 14.7103 43.7143 14.7306C43.5057 14.7508 43.4853 14.6597 43.4853 14.4876C43.4957 13.5918 43.4803 12.701 43.4957 11.8051C43.5007 11.5824 43.4346 11.5318 43.2259 11.552C43.0226 11.5723 42.8192 11.552 42.6156 11.5571C42.5087 11.5621 42.453 11.5318 42.4734 11.4154C42.4734 11.4002 42.4734 11.3799 42.4734 11.3647C42.4784 11.1218 42.3919 10.8029 42.5137 10.6561C42.6409 10.4992 42.9718 10.6106 43.2159 10.6106C43.9126 10.6055 44.6044 10.6156 45.3012 10.6005C45.5099 10.5954 45.5606 10.6663 45.5452 10.8586C45.5302 11.0357 45.5352 11.2129 45.5452 11.3901C45.5556 11.5217 45.5149 11.5672 45.3777 11.5621C45.159 11.552 44.9349 11.5672 44.7163 11.5571C44.574 11.552 44.5279 11.5925 44.5279 11.7393C44.5383 12.2049 44.5333 12.6807 44.5333 13.1514Z" fill="white"/>
<path d="M36.507 19.3723C37.036 18.6586 37.5497 17.9652 38.0583 17.2769C38.0889 17.2364 38.1194 17.1959 38.1499 17.1554C38.1957 17.0795 38.272 17.0643 38.3483 17.0845C38.4449 17.1098 38.3992 17.1959 38.3992 17.2566C38.4042 18.2031 38.3992 19.1445 38.3992 20.091C38.3992 20.4048 38.389 20.7136 38.4042 21.0274C38.4144 21.2957 38.2211 21.1793 38.1092 21.1995C37.9872 21.2197 37.8956 21.2147 37.8956 21.0274C37.9058 20.1264 37.9007 19.2255 37.9007 18.2487C37.7633 18.436 37.6616 18.5726 37.5599 18.7042C37.2598 19.1142 36.9546 19.5191 36.6647 19.9341C36.5477 20.1011 36.4816 20.1366 36.3442 19.9392C35.9577 19.3875 35.5508 18.8459 35.1489 18.2993C35.0625 18.3499 35.1032 18.4258 35.1032 18.4815C35.0981 19.3065 35.093 20.1366 35.1082 20.9616C35.1133 21.1793 35.0269 21.1944 34.8488 21.1995C34.6505 21.2045 34.5945 21.1489 34.5945 20.9464C34.6047 19.7317 34.5996 18.5169 34.5996 17.3022C34.5996 17.2263 34.5437 17.12 34.6505 17.0795C34.7675 17.034 34.8336 17.1149 34.8946 17.206C35.4338 17.9197 35.9628 18.6333 36.507 19.3723Z" fill="white"/>
<path d="M29.5943 18.2386C29.2942 18.2993 29.1162 18.2437 28.9534 17.9754C28.6635 17.4946 27.8548 17.3377 27.1986 17.5756C26.5832 17.7983 26.2017 18.3905 26.2017 19.1294C26.2017 19.8785 26.573 20.4656 27.1834 20.6934C28.1396 21.0477 29.0959 20.5568 29.2739 19.6305C29.3044 19.4736 29.2688 19.4432 29.1213 19.4483C28.75 19.4584 28.3736 19.4382 28.0023 19.4533C27.8243 19.4635 27.8141 19.3774 27.8192 19.2459C27.8243 19.1244 27.7988 19.0231 27.9921 19.0282C28.5262 19.0434 29.0603 19.0383 29.5943 19.0282C29.7367 19.0282 29.7571 19.0839 29.7571 19.2053C29.7825 20.3543 29.0603 21.154 27.8955 21.2502C26.812 21.3413 25.8762 20.5972 25.7287 19.5192C25.5659 18.3348 26.1356 17.3782 27.1834 17.0998C27.8192 16.9328 28.4245 17.0087 28.9789 17.3782C29.2942 17.5857 29.4926 17.8691 29.5943 18.2386Z" fill="white"/>
<path d="M49.8798 18.2397C49.6204 18.2954 49.4271 18.2751 49.2641 17.9866C48.9997 17.5159 48.2061 17.3438 47.5601 17.5513C46.894 17.7639 46.4767 18.4168 46.5024 19.1963C46.5278 19.9909 46.9548 20.5629 47.6466 20.7451C48.5674 20.983 49.3813 20.5224 49.5743 19.667C49.61 19.5101 49.6 19.4392 49.4067 19.4494C49.0405 19.4645 48.6792 19.4443 48.313 19.4595C48.145 19.4645 48.1147 19.3988 48.125 19.257C48.135 19.1356 48.1096 19.0293 48.298 19.0343C48.8318 19.0495 49.366 19.0444 49.8998 19.0343C50.017 19.0343 50.0527 19.0647 50.0578 19.1862C50.1135 20.325 49.366 21.1601 48.1911 21.2512C47.1077 21.3373 46.1565 20.5679 46.0293 19.5101C45.9732 19.0647 46.004 18.6345 46.1819 18.2194C46.7822 16.8174 48.547 16.7516 49.3964 17.4602C49.6608 17.6829 49.8187 17.936 49.8798 18.2397Z" fill="white"/>
<path d="M44.7323 20.1873C44.6509 19.1852 44.6762 18.2589 44.6612 17.3277C44.6559 17.115 44.717 17.0645 44.9256 17.0645C45.1189 17.0695 45.18 17.11 45.1747 17.3125C45.1647 18.5373 45.1697 19.7571 45.1647 20.982C45.1647 21.0528 45.2258 21.1642 45.1036 21.1946C45.0017 21.2249 44.951 21.1389 44.9003 21.0782C44.0967 20.1519 43.2927 19.2257 42.4891 18.3045C42.4483 18.2539 42.4026 18.2033 42.3569 18.1526C42.2858 18.2235 42.3215 18.3045 42.3215 18.3703C42.3265 19.2409 42.3315 20.1064 42.3519 20.9769C42.3569 21.1946 42.255 21.1946 42.0924 21.1996C41.9145 21.2047 41.8484 21.1743 41.8484 20.9718C41.8584 19.7571 41.8534 18.5424 41.8584 17.3277C41.8584 17.2466 41.7973 17.1302 41.9095 17.0847C42.0313 17.0341 42.0874 17.1454 42.1536 17.2214C42.9672 18.1577 43.7811 19.0991 44.5951 20.0355C44.6255 20.0659 44.6509 20.0962 44.7323 20.1873Z" fill="white"/>
<path d="M40.1133 21.195C39.8589 21.195 39.6045 21.1798 39.3501 21.2C39.1721 21.2102 39.1621 21.1343 39.1621 20.9925C39.1621 20.866 39.1771 20.8002 39.3351 20.8002C39.8793 20.7951 39.8793 20.785 39.8793 20.2485C39.8793 19.3982 39.8742 18.5428 39.8843 17.6925C39.8843 17.5103 39.8335 17.4495 39.6606 17.4748C39.5945 17.485 39.523 17.4647 39.4569 17.4799C39.2232 17.5255 39.1925 17.3989 39.2128 17.2116C39.2232 17.1155 39.2436 17.0801 39.3451 17.0801C39.8689 17.0851 40.3981 17.0851 40.9219 17.0801C41.1202 17.0801 41.0337 17.2268 41.0491 17.3129C41.0695 17.4192 41.0388 17.485 40.9065 17.4799C40.739 17.4748 40.5149 17.3989 40.4184 17.5103C40.3116 17.6368 40.3877 17.8646 40.3827 18.0468C40.3777 18.8819 40.3877 19.7171 40.3777 20.5522C40.3777 20.7395 40.4081 20.8407 40.6218 20.8053C40.7032 20.7901 40.7897 20.8103 40.8762 20.8002C41.0184 20.7901 41.1049 20.8053 41.1049 20.9976C41.1049 21.1899 41.0184 21.2 40.8762 21.195C40.6218 21.1899 40.3673 21.195 40.1133 21.195Z" fill="white"/>
<path d="M51.848 10.5352C50.5916 10.5352 49.7119 11.4158 49.7119 12.6711C49.7119 13.9415 50.5716 14.7969 51.848 14.7969C53.0893 14.7969 53.964 13.9111 53.964 12.666C53.959 11.4158 53.0843 10.5352 51.848 10.5352ZM51.8226 13.7846C51.2227 13.7795 50.8003 13.319 50.8003 12.6711C50.8003 12.008 51.2227 11.5576 51.843 11.5576C52.4433 11.5576 52.8653 12.0131 52.8653 12.666C52.8653 13.319 52.4279 13.7897 51.8226 13.7846Z" fill="white"/>
<path d="M42.2034 14.4672C41.9951 14.123 41.7814 13.7789 41.5627 13.4397C41.4863 13.3183 41.4709 13.2525 41.5981 13.1361C42.0508 12.721 42.168 12.1896 42.0001 11.6126C41.8372 11.0559 41.4505 10.7116 40.8606 10.6357C40.2299 10.5547 39.5943 10.6206 38.9583 10.5952C38.7803 10.5902 38.7549 10.656 38.7549 10.8129C38.76 11.4304 38.76 12.0428 38.76 12.6603C38.76 13.2828 38.7651 13.9054 38.76 14.533C38.76 14.6646 38.7803 14.7304 38.9329 14.7203C39.1769 14.7051 39.4263 14.7102 39.6704 14.7203C39.8026 14.7253 39.8483 14.6899 39.8433 14.5533C39.8333 14.3154 39.8383 14.0826 39.8383 13.8447C39.8383 13.4094 39.8383 13.4144 40.2657 13.4296C40.3775 13.4347 40.4332 13.4752 40.4793 13.5663C40.5401 13.6878 40.6062 13.8042 40.6723 13.9206C40.8199 14.1838 40.9167 14.5482 41.1404 14.6747C41.3794 14.8063 41.7507 14.7152 42.0612 14.7152C42.3002 14.7152 42.3256 14.6747 42.2034 14.4672ZM40.5351 12.5591C40.474 12.5641 40.4182 12.5591 40.3571 12.5591C39.8279 12.5591 39.8283 12.5591 39.8283 12.0428C39.8283 11.5468 39.8279 11.5468 40.3214 11.5468C40.3875 11.5468 40.459 11.5468 40.5251 11.5468C40.8506 11.5569 41.0082 11.7087 41.0132 12.0276C41.0182 12.3516 40.8506 12.5439 40.5351 12.5591Z" fill="white"/>
<path d="M38.2978 14.4018C37.7282 13.182 37.1483 11.9673 36.5888 10.7475C36.5074 10.5754 36.4006 10.5703 36.2531 10.5703C36.1056 10.5703 35.9886 10.5754 35.9123 10.7475C35.6885 11.2637 35.4393 11.7699 35.1951 12.2811C34.8492 13.0099 34.5034 13.7388 34.1575 14.4676C34.0863 14.6144 34.0405 14.746 34.2948 14.7308C34.4881 14.7207 34.6865 14.7106 34.8797 14.7308C35.1443 14.7612 35.3172 14.6853 35.3782 14.4119C35.4189 14.2449 35.5308 14.1994 35.6987 14.2095C36.07 14.2247 36.4464 14.2196 36.8177 14.2095C36.9652 14.2044 37.0618 14.2398 37.0974 14.3917C37.1686 14.6802 37.3568 14.7764 37.6366 14.7258C37.6875 14.7156 37.7383 14.7258 37.7892 14.7258C37.8909 14.7258 37.9926 14.7258 38.0944 14.7258C38.4148 14.7258 38.4351 14.6954 38.2978 14.4018ZM36.4972 13.3187C36.2887 13.3136 36.075 13.3187 35.8207 13.3187C35.9682 12.9745 36.1005 12.6708 36.2429 12.3317C36.3752 12.6354 36.4871 12.9036 36.6091 13.1668C36.6702 13.2934 36.6244 13.3237 36.4972 13.3187Z" fill="white"/>
<path d="M33.8925 20.8961C33.3279 19.6813 32.7633 18.4717 32.1936 17.262C32.1529 17.181 32.1478 17.0697 32.0003 17.0646C31.8426 17.0595 31.8274 17.1709 31.7816 17.262C31.2018 18.4869 30.6219 19.7067 30.0421 20.9315C29.92 21.1897 29.92 21.1897 30.2252 21.1897C30.4134 21.2453 30.5151 21.139 30.5863 20.9416C30.6677 20.7291 30.7847 20.5317 30.8762 20.3242C30.9271 20.2027 30.9983 20.1673 31.1255 20.1673C31.6951 20.1723 32.2597 20.1774 32.8294 20.1673C32.9718 20.1673 33.0431 20.2077 33.0939 20.3343C33.2007 20.5823 33.3228 20.8202 33.4398 21.0631C33.4906 21.1644 33.8721 21.2554 33.9586 21.1745C34.0603 21.0783 33.9332 20.9821 33.8925 20.8961ZM31.1255 19.7421C31.4052 19.1246 31.6799 18.5122 31.98 17.8441C32.275 18.497 32.5497 19.1043 32.8396 19.7421C32.2597 19.7421 31.7104 19.7421 31.1255 19.7421Z" fill="white"/>
<path d="M13.6895 4.82103C14.1117 4.85646 14.4932 4.99312 14.8543 5.2057C17.1331 6.55708 19.4168 7.89838 21.6955 9.24469C22.2246 9.55853 22.3059 9.89762 21.9855 10.4341C21.7922 10.6062 21.6345 10.8138 21.4158 10.9707C20.6732 11.5072 19.4372 11.5072 18.7047 10.9909C18.1808 10.6214 17.6519 10.2519 17.0822 9.94826C15.9784 9.36618 14.8238 8.97138 13.5726 8.82459C12.3874 8.68795 11.2684 8.86004 10.2359 9.4573C8.56755 10.424 7.55537 11.8665 7.18405 13.7544C7.17897 13.7899 7.1739 13.8202 7.16371 13.8557C7.1332 13.9265 7.11287 14.0024 7.03147 14.0277C5.91246 14.0075 4.79345 14.0227 3.67445 14.0176C3.58289 14.0176 3.49133 14.0075 3.41504 13.9366C3.41504 12.9598 3.41504 11.9779 3.41504 11.001C3.54729 10.2368 3.95928 9.67494 4.65612 9.3257C4.73242 9.29025 4.80363 9.24469 4.89518 9.24977C4.99182 9.28014 5.01217 9.37125 5.02234 9.45222C5.06812 9.84703 5.3733 9.97355 5.78022 9.928C6.03453 9.89762 6.2736 9.81158 6.50757 9.72046C7.58081 9.30036 8.56755 8.70818 9.5594 8.12614C10.2155 7.74145 10.8666 7.35172 11.4821 6.90632C11.7517 6.71401 12.0009 6.50141 12.2298 6.26354C12.4943 5.99023 12.6011 5.68654 12.4078 5.32211C12.3722 5.25125 12.3569 5.1804 12.4027 5.10447C12.6977 4.82609 13.069 4.8109 13.4403 4.80078C13.5268 4.8109 13.6082 4.7856 13.6895 4.82103Z" fill="#E80531"/>
<path d="M3.41504 13.9371C4.39163 13.9371 5.36822 13.9371 6.34481 13.9371C6.58895 13.9371 6.8331 13.9219 7.07217 13.9877C7.14846 14.0535 7.1332 14.1395 7.12812 14.2256C7.12302 14.2559 7.11794 14.2812 7.10776 14.3116C7.08232 14.5039 7.10268 14.6963 7.09761 14.8886C7.09761 14.9949 7.10776 15.1113 7.00603 15.1873C6.89414 15.2429 6.77715 15.2328 6.66016 15.2328C5.70901 15.2328 4.75785 15.2328 3.80669 15.2328C3.67445 15.2328 3.53203 15.248 3.42013 15.1518C3.41504 14.7469 3.41504 14.342 3.41504 13.9371Z" fill="#E5052E"/>
<path d="M3.41504 15.1523C4.62052 15.1523 5.82599 15.1523 7.0264 15.1523C7.07724 15.1422 7.09761 15.1726 7.11794 15.2131C7.13827 15.2789 7.14338 15.3447 7.14846 15.4105C7.15864 15.5573 7.20949 15.699 7.22985 15.8458C7.23493 15.9217 7.22985 15.9976 7.16371 16.0482C6.98569 16.1495 6.78732 16.1393 6.59404 16.1444C5.65306 16.1545 4.71207 16.1191 3.77617 16.1646C3.57272 15.9115 3.55746 15.5826 3.42013 15.3042C3.41504 15.2536 3.41504 15.203 3.41504 15.1523Z" fill="#E1052C"/>
<path d="M11.4972 11.9568C11.4769 11.8657 11.5176 11.7948 11.5583 11.7189C12.0873 10.6813 13.4047 10.2004 14.4728 10.6864C16.8634 11.7745 19.2184 12.9387 21.5632 14.118C22.4585 14.5685 22.9874 15.358 23.0485 16.3602C23.1349 17.7622 23.1146 19.1743 23.0586 20.5814C23.0281 21.3001 22.667 21.8873 22.0464 22.2466C20.9223 22.8995 19.7728 23.5069 18.6335 24.1295C18.6182 24.1092 18.6081 24.089 18.6081 24.0637C18.6182 24.0282 18.6335 23.9979 18.6589 23.9726C18.7657 23.8663 18.9031 23.7954 18.9997 23.679C19.0963 23.5879 19.1981 23.5018 19.2591 23.3804C19.3202 23.2589 19.4168 23.1627 19.5083 23.0666C19.5795 22.9957 19.6202 22.9097 19.6559 22.8186C19.7118 22.7072 19.8135 22.6262 19.844 22.4997C19.8796 22.4086 19.9356 22.3276 19.9763 22.2416C20.6579 20.4599 20.4544 18.8201 19.1981 17.3472C18.6742 16.7347 18.0129 16.3248 17.2652 16.0413C15.7291 15.4542 14.188 14.8924 12.6519 14.3002C11.9957 14.0471 11.5939 13.5612 11.4311 12.883C11.3752 12.6451 11.4006 12.4123 11.4362 12.1795C11.4362 12.1035 11.4617 12.0276 11.4972 11.9568Z" fill="#EF013A"/>
<path d="M7.12849 13.8313C7.14882 13.3403 7.31158 12.8898 7.50485 12.4495C8.27291 10.7236 9.50891 9.49362 11.3502 8.9217C12.0725 8.69898 12.81 8.68887 13.5577 8.75972C14.6614 8.86095 15.6889 9.20005 16.6807 9.66063C17.3827 9.98458 18.0134 10.4249 18.6492 10.8552C19.7122 11.584 20.9024 11.4575 21.8078 10.5565C21.8587 10.5059 21.879 10.3895 21.996 10.4351C21.3348 11.7814 19.6715 12.2318 18.4355 11.3765C17.403 10.6729 16.3349 10.0706 15.1345 9.71634C13.2576 9.16464 11.5129 9.43795 9.95653 10.6324C9.27494 11.1538 8.97483 11.913 8.85277 12.7431C8.79681 13.1227 8.8324 13.4972 8.9138 13.8667C8.93924 13.9629 8.86295 13.9932 8.80188 13.9983C8.28309 14.0438 7.76426 14.0388 7.24547 14.0034C7.16407 13.9932 7.0776 13.9527 7.12849 13.8313Z" fill="#930701"/>
<path d="M20.0018 22.2937C19.9662 22.3747 19.9306 22.4607 19.8899 22.5417C19.7729 22.6125 19.7119 22.5215 19.6661 22.4506C19.4423 22.0811 19.071 21.8787 18.7353 21.6458C18.2216 21.2915 17.6773 20.9777 17.1585 20.6335C17.072 20.5728 16.9245 20.5323 16.9957 20.3704C17.2704 19.8541 17.4586 19.3176 17.5298 18.7355C17.6468 17.7232 17.128 16.7514 16.1921 16.3263C15.7343 16.1188 15.2715 15.9214 14.8086 15.7189C14.9358 15.562 15.0833 15.6278 15.2257 15.6835C15.7547 15.891 16.2633 16.139 16.8025 16.3212C17.4332 16.5338 17.9876 16.8628 18.481 17.293C19.1524 17.8751 19.6254 18.5837 19.8289 19.4643C19.9916 20.178 20.0323 20.8866 19.8034 21.5851C19.7068 21.8787 19.8696 22.071 20.0018 22.2937Z" fill="#930701"/>
<path d="M13.0791 26.9546C12.9774 26.9546 12.8756 26.9546 12.7688 26.9546C12.6468 26.9394 12.5247 26.9495 12.4128 26.8888C9.68649 25.1376 6.93474 23.4217 4.20334 21.6756C4.03549 21.5693 3.84221 21.4933 3.70996 21.3263C3.81678 21.0378 4.04566 20.8455 4.26946 20.6582C5.00191 21.1239 5.73943 21.5895 6.47188 22.0551C8.3335 23.2395 10.1951 24.4189 12.0618 25.5981C12.662 25.9778 13.2724 26.3422 13.8472 26.7471C13.6132 26.8888 13.3487 26.9293 13.0791 26.9546Z" fill="#EA042F"/>
<path d="M20.0022 22.2934C19.7479 22.1314 19.6461 21.9289 19.7275 21.6101C19.8038 21.3216 19.8903 21.028 19.8954 20.7243C19.9157 19.6007 19.6105 18.5884 18.8476 17.7381C18.3542 17.1813 17.7591 16.7714 17.0724 16.4879C16.4621 16.2399 15.8517 16.002 15.2413 15.7489C15.0989 15.6882 14.9565 15.6427 14.8039 15.7085C14.0257 15.4098 13.2475 15.1112 12.5099 14.7265C11.5944 14.2457 11.1671 13.2942 11.3502 12.2819C11.3553 12.2414 11.3808 12.206 11.396 12.1655C11.4113 12.1402 11.4265 12.1402 11.4418 12.1655C11.3858 12.8589 11.5689 13.4612 12.1183 13.9319C12.398 14.1647 12.7337 14.271 13.0643 14.3976C14.6004 14.9847 16.1671 15.5161 17.6726 16.169C19.1782 16.822 20.0632 18.0266 20.3379 19.6412C20.4803 20.4662 20.4091 21.2811 20.0988 22.0707C20.0836 22.1466 20.0683 22.2326 20.0022 22.2934Z" fill="#8F0601"/>
<path d="M5.50015 20.0156C5.87145 19.8941 6.25293 19.8739 6.63441 19.9548C6.47673 20.0409 6.5632 20.0915 6.65476 20.1522C7.34141 20.6027 8.03826 21.0329 8.72999 21.4733C10.1288 22.359 11.5326 23.2447 12.9314 24.1305C13.7147 24.6265 14.5031 25.1225 15.2864 25.6287C15.3779 25.6843 15.4848 25.7299 15.5305 25.8412C15.3576 25.9678 15.1745 26.069 14.9761 26.1449C14.8235 26.2006 14.7167 26.0943 14.6048 26.0235C13.8063 25.5173 13.0077 25.0112 12.204 24.505C10.3933 23.3561 8.57742 22.2072 6.76666 21.0633C6.37501 20.8153 5.97826 20.5673 5.5917 20.3142C5.50015 20.2484 5.30178 20.1826 5.50015 20.0156Z" fill="#DF0429"/>
<path d="M5.50016 20.0156C5.39843 20.1675 5.53576 20.2029 5.62223 20.2586C6.39028 20.7495 7.15325 21.2354 7.92127 21.7213C8.82665 22.2933 9.73206 22.8601 10.6323 23.4321C12.026 24.3127 13.4197 25.1934 14.8134 26.0741C14.8642 26.1045 14.91 26.1399 14.9761 26.1399C14.8235 26.226 14.6709 26.307 14.5132 26.393C14.4268 26.4234 14.3709 26.3626 14.3098 26.3221C11.7666 24.7076 9.22341 23.098 6.6802 21.4885C6.15122 21.1544 5.62223 20.8204 5.09833 20.4813C5.00678 20.4205 4.86944 20.375 4.94065 20.213C5.11359 20.1118 5.2967 20.0409 5.50016 20.0156Z" fill="#E3042B"/>
<path d="M15.5307 25.8356C14.8339 25.3953 14.132 24.9549 13.4351 24.5146C11.4362 23.2493 9.4372 21.9839 7.43317 20.7186C7.07714 20.4958 6.72616 20.263 6.37012 20.0353C6.44641 19.9138 6.55323 19.9796 6.62952 19.9492C6.97031 19.9593 7.29586 20.0656 7.58575 20.2326C8.16561 20.5667 8.73021 20.9261 9.29988 21.2753C9.28463 21.3563 9.35584 21.3664 9.40161 21.3968C11.1818 22.5153 12.957 23.644 14.7373 24.7677C15.0678 24.9752 15.3985 25.1726 15.7189 25.4004C15.8003 25.4611 15.9224 25.5016 15.8817 25.6484C15.7749 25.7243 15.663 25.8002 15.5307 25.8356Z" fill="#DA0526"/>
<path d="M13.8523 26.7461C13.776 26.7461 13.7099 26.7208 13.6387 26.6752C11.4871 25.3036 9.33051 23.937 7.17387 22.5704C6.27866 22.0035 5.37837 21.4367 4.47807 20.8698C4.39161 20.8141 4.31531 20.7483 4.26953 20.6572C4.38143 20.5256 4.52385 20.4294 4.68153 20.3535C4.73748 20.48 4.83921 20.5661 4.9562 20.642C7.09248 21.9833 9.2186 23.3347 11.3447 24.6861C12.3162 25.3036 13.2979 25.8958 14.2491 26.5436C14.1321 26.6297 14.0049 26.7107 13.8523 26.7461Z" fill="#E8042D"/>
<path d="M3.71479 21.3262C4.11153 21.5033 4.45231 21.7615 4.81345 21.9892C6.60895 23.123 8.39937 24.2669 10.1949 25.4057C10.851 25.8207 11.5072 26.2307 12.1684 26.6407C12.2701 26.7014 12.3718 26.7621 12.4176 26.8836C12.148 26.8583 11.9191 26.7318 11.6954 26.6002C9.14199 25.1121 6.59369 23.619 4.04032 22.131C3.66901 21.9133 3.57746 21.6906 3.71479 21.3262Z" fill="#EB0330"/>
<path d="M14.2545 26.5397C14.1731 26.5447 14.1121 26.5093 14.046 26.4688C11.9351 25.1275 9.81916 23.7863 7.70322 22.445C6.73681 21.8325 5.7653 21.2151 4.79889 20.6026C4.70225 20.5419 4.60052 20.4913 4.68699 20.3496C4.7582 20.2787 4.84975 20.2382 4.9464 20.2129C4.95148 20.3192 5.03286 20.3698 5.11425 20.4204C6.38076 21.2201 7.64727 22.0249 8.91886 22.8246C10.6686 23.9331 12.4234 25.0364 14.1782 26.1449C14.3003 26.2208 14.4122 26.3119 14.5292 26.3929C14.4427 26.4637 14.3512 26.5144 14.2545 26.5397Z" fill="#E6042C"/>
<path d="M7.58129 18.5431C7.36257 18.4723 7.16419 18.366 6.96582 18.2596C6.97599 18.0876 7.10823 18.0724 7.23033 18.0673C7.55585 18.0572 7.88137 18.0319 8.20181 18.0876C8.39508 18.2192 8.60873 18.1584 8.81726 18.1584C9.8498 18.1584 10.8824 18.1584 11.9149 18.1584C12.7592 18.1584 13.6087 18.1584 14.453 18.1584C14.6158 18.1584 14.7735 18.1483 14.921 18.0623C14.9871 18.1382 14.9515 18.2293 14.9667 18.3154C15.0278 18.8164 15.0125 18.8316 14.5293 18.7861C14.392 18.7709 14.2597 18.7759 14.1224 18.7759C12.4591 18.7759 10.7908 18.7759 9.12755 18.7759C8.9902 18.7759 8.85796 18.781 8.72064 18.7608C8.39001 18.5178 8.00346 18.5482 7.62706 18.5532C7.61688 18.5532 7.59655 18.5482 7.58129 18.5431Z" fill="#CD051F"/>
<path d="M8.65395 18.6941C10.5461 18.6941 12.4433 18.6941 14.3354 18.6941C14.4372 18.6941 14.5389 18.6941 14.6356 18.7143C14.9458 18.775 14.956 18.77 14.9611 18.4663C14.9611 18.4157 14.9662 18.3651 14.9662 18.3145C15.0679 18.6181 14.9865 18.9117 14.9 19.2002C14.7932 19.3672 14.6152 19.3267 14.4626 19.3267C12.9214 19.3318 11.3803 19.3267 9.84415 19.3318C9.66613 19.3318 9.48811 19.3166 9.31517 19.3571C9.23381 19.347 9.16259 19.3116 9.10153 19.2559C9.02017 19.1243 8.88281 19.0534 8.77601 18.9522C8.69972 18.8864 8.58274 18.8307 8.65395 18.6941Z" fill="#D20521"/>
<path d="M12.4693 16.168C12.7897 16.2186 13.0745 16.3755 13.3594 16.5121C13.4509 16.5577 13.5476 16.588 13.6391 16.6286C13.7307 16.6893 13.6849 16.7399 13.6188 16.7753C13.512 16.8361 13.395 16.8512 13.2729 16.8512C11.391 16.8563 9.51406 16.8614 7.63209 16.8512C7.59651 16.8512 7.56599 16.8462 7.53037 16.836C7.449 16.8158 7.38794 16.7652 7.34727 16.6943C7.30658 16.5526 7.18448 16.4159 7.31676 16.2641C7.45915 16.168 7.62702 16.1882 7.78471 16.1882C9.25976 16.1831 10.7399 16.1933 12.2149 16.1831C12.3014 16.1831 12.3828 16.1781 12.4693 16.168Z" fill="#B80614"/>
<path d="M15.8864 25.6496C15.8508 25.5433 15.7592 25.4978 15.6728 25.4421C13.9587 24.3589 12.2496 23.2707 10.5355 22.1825C10.1388 21.9295 9.74205 21.6713 9.35039 21.4132C9.30969 21.3879 9.18252 21.3626 9.30462 21.2715C9.92006 21.6359 10.5915 21.8535 11.2629 22.0762C11.502 22.2888 11.7817 22.4407 12.0462 22.6077C13.4805 23.5137 14.9098 24.4298 16.3493 25.3307C16.3645 25.3409 16.3747 25.356 16.3849 25.3662C16.2272 25.4876 16.0543 25.5737 15.8864 25.6496Z" fill="#D70524"/>
<path d="M9.31543 19.3573C9.35102 19.1902 9.48834 19.251 9.58499 19.251C11.2533 19.2459 12.9166 19.2459 14.5849 19.2459C14.6917 19.2459 14.8036 19.2662 14.9054 19.1953C14.8494 19.418 14.7477 19.6205 14.6002 19.8027C14.473 19.8938 14.3255 19.8837 14.1831 19.8837C13.2167 19.8735 12.2553 19.8128 11.2889 19.828C10.9888 19.833 10.6888 19.9393 10.3836 19.8533C10.0072 19.7268 9.65113 19.5597 9.31543 19.3573Z" fill="#D70524"/>
<path d="M7.48464 16.771C9.38693 16.771 11.2893 16.771 13.1865 16.771C13.334 16.771 13.4713 16.7457 13.6087 16.7153C13.6748 16.7001 13.6494 16.6596 13.6392 16.6191C13.9037 16.7052 14.1173 16.8621 14.3004 17.0747C14.3004 17.1405 14.2546 17.1607 14.2038 17.1759C14.1326 17.2012 14.0563 17.2012 13.98 17.2012C11.9759 17.181 9.9719 17.2923 7.96276 17.2518C7.87122 17.2518 7.77456 17.2518 7.68302 17.2316C7.48971 17.1354 7.40324 16.9886 7.48464 16.771Z" fill="#BE0617"/>
<path d="M7.28599 16.3154C7.32669 16.4318 7.38772 16.5432 7.38772 16.6697C7.43856 16.7912 7.34702 16.8114 7.26562 16.8317C7.15882 16.857 7.04691 16.8468 6.94011 16.8519C6.07033 16.8671 5.20565 16.8215 4.33587 16.8772C4.1019 16.6798 3.90353 16.447 3.77637 16.1635C3.80689 16.0117 3.93405 16.0674 4.0256 16.0674C4.84451 16.0623 5.66342 16.0623 6.48233 16.0674C6.72139 16.0674 6.95028 16.0421 7.18426 16.0117C7.34194 16.0725 7.33176 16.1889 7.28599 16.3154Z" fill="#DC0529"/>
<path d="M7.28551 16.315C7.24485 16.2138 7.255 16.0974 7.18378 16.0114C7.18378 15.9456 7.17871 15.8798 7.17871 15.8089C7.29062 15.7026 7.43305 15.7279 7.56529 15.7279C8.65376 15.7229 9.74226 15.7279 10.8358 15.7279C10.9935 15.7279 11.1563 15.7431 11.3089 15.6621C11.7209 15.7785 12.082 16.0164 12.4787 16.1632C12.3821 16.2695 12.2549 16.2594 12.1278 16.2594C10.6476 16.2594 9.17259 16.2594 7.69243 16.2594C7.54493 16.2644 7.41268 16.2746 7.28551 16.315Z" fill="#B20611"/>
<path d="M17.4585 24.7824C17.3619 24.8836 17.2194 24.9038 17.1024 24.9747C16.96 25 16.8634 24.9038 16.7617 24.838C15.6223 24.1142 14.4779 23.3905 13.3385 22.6667C13.2215 22.5907 13.013 22.5553 13.0689 22.3275C13.1503 22.2921 13.247 22.3377 13.3283 22.2972C13.4657 22.282 13.5979 22.2263 13.7404 22.2466C14.1727 22.4743 14.5745 22.7578 14.9865 23.021C15.7037 23.4714 16.4209 23.9118 17.1228 24.3825C17.2703 24.4736 17.4636 24.5546 17.4585 24.7824Z" fill="#C9051D"/>
<path d="M13.0791 22.3439C13.1299 22.5413 13.3232 22.5869 13.4605 22.678C14.6711 23.4524 15.8867 24.2116 17.1024 24.9759C16.9956 25.0619 16.8735 25.1328 16.7413 25.1733C16.5683 25.2593 16.4462 25.1277 16.3292 25.0518C15.5205 24.5406 14.7118 24.0294 13.903 23.5182C13.4148 23.2094 12.9316 22.9007 12.4432 22.597C12.3618 22.5464 12.2805 22.5059 12.2245 22.43C12.1788 22.3692 12.1838 22.3642 12.2754 22.2832C12.3415 22.2882 12.4077 22.2933 12.4687 22.2984C12.6721 22.3541 12.8807 22.2731 13.0791 22.3439Z" fill="#CE0520"/>
<path d="M12.276 22.2837C12.164 22.471 12.3675 22.471 12.4336 22.5115C12.9677 22.8657 13.512 23.1998 14.0562 23.5389C14.8853 24.0603 15.7093 24.5765 16.5333 25.0978C16.5994 25.1383 16.6604 25.1738 16.7418 25.1687C16.6299 25.2547 16.5129 25.3205 16.3807 25.3712C16.1619 25.3661 16.0144 25.1991 15.8517 25.0978C14.6157 24.3285 13.3899 23.5389 12.159 22.7544C11.8894 22.5823 11.6198 22.4102 11.3553 22.2331C11.3095 22.2027 11.1875 22.1926 11.2638 22.0762C11.5384 22.1268 11.8131 22.1825 12.0878 22.2331C12.1488 22.2533 12.22 22.2432 12.276 22.2837Z" fill="#D20522"/>
<path d="M19.03 23.7061C18.9486 23.8529 18.8062 23.9187 18.6791 24.0149C18.4654 23.9794 18.379 23.8023 18.3078 23.6454C18.1857 23.372 17.9771 23.2 17.7432 23.0532C17.1226 22.6634 16.5021 22.2636 15.8816 21.8739C15.7798 21.8081 15.612 21.7726 15.6781 21.5854C15.8307 21.4892 15.9833 21.393 16.1359 21.2969C16.8937 21.8182 17.7076 22.2585 18.4502 22.8052C18.6689 22.9671 18.8469 23.1443 18.8876 23.4227C18.8978 23.5239 18.9792 23.6099 19.03 23.7061Z" fill="#AE060F"/>
<path d="M14.9203 18.0662C14.9253 18.2636 14.788 18.2383 14.6558 18.2383C13.5877 18.2383 12.5195 18.2383 11.4564 18.2383C10.5917 18.2383 9.72707 18.2383 8.86239 18.2383C8.73522 18.2383 8.60805 18.213 8.48599 18.2687C8.33849 18.3345 8.27235 18.2231 8.19606 18.1371C8.13503 18.0966 8.0994 18.046 8.15029 17.9751C8.25202 17.8941 8.37408 17.9043 8.49106 17.9043C8.93868 17.8992 9.38625 17.8941 9.83387 17.9043C11.3649 17.9397 12.8908 17.8334 14.4218 17.8486C14.5591 17.8486 14.6914 17.8435 14.8135 17.7676C14.8898 17.8536 14.9101 17.9599 14.9203 18.0662Z" fill="#C9051C"/>
<path d="M10.3779 19.8642C10.6425 19.8086 10.9069 19.7681 11.1765 19.7631C11.7665 19.7529 12.3616 19.7327 12.9517 19.7681C13.501 19.8035 14.0452 19.8035 14.5946 19.8086C14.4522 20.0161 14.2843 20.2034 14.0605 20.3198C13.6841 20.3704 13.3077 20.335 12.9313 20.3401C12.4532 20.3451 11.9751 20.3401 11.4969 20.3704C11.1053 20.2338 10.734 20.0566 10.3779 19.8642Z" fill="#DB0525"/>
<path d="M17.4584 24.7837C17.3719 24.647 17.2549 24.5407 17.1176 24.4496C16.0545 23.7714 14.9915 23.0881 13.9284 22.4099C13.8572 22.3643 13.786 22.3238 13.7402 22.2428C13.9793 22.1922 14.2133 22.1366 14.4523 22.0859C14.4676 22.1922 14.5286 22.2631 14.6202 22.3188C15.4086 22.8097 16.1919 23.3108 16.9752 23.8018C17.3058 24.0093 17.5855 24.2725 17.8551 24.5559C17.733 24.6571 17.6008 24.728 17.4584 24.7837Z" fill="#C4051B"/>
<path d="M15.6732 21.5801C15.6681 21.6965 15.7698 21.7319 15.8461 21.7775C16.4718 22.1723 17.1025 22.557 17.723 22.9568C17.9875 23.1289 18.252 23.301 18.369 23.6299C18.4249 23.7767 18.5724 23.8881 18.6792 24.0146C18.664 24.0298 18.6436 24.045 18.6284 24.0652C18.5775 24.1715 18.4504 24.1968 18.3741 24.2728C18.2011 24.2829 18.1401 24.1361 18.0892 24.0247C17.9315 23.6806 17.6416 23.4832 17.3415 23.2959C16.7057 22.896 16.0699 22.4911 15.4392 22.0913C15.3375 22.0255 15.1696 21.98 15.2663 21.7927C15.4036 21.7168 15.5359 21.6459 15.6732 21.5801Z" fill="#B50613"/>
<path d="M17.8557 24.5663C17.6167 24.5258 17.5149 24.3031 17.3522 24.1665C16.8588 23.7666 16.2993 23.4781 15.7805 23.1289C15.3532 22.8454 14.9209 22.5772 14.4835 22.3089C14.3665 22.2381 14.3359 22.1824 14.458 22.0913C14.6106 22.0407 14.7632 21.9901 14.9158 21.9395C14.9768 22.066 15.0786 22.147 15.1955 22.2178C15.8364 22.6126 16.4621 23.0277 17.108 23.4174C17.5251 23.6705 17.8761 23.9944 18.1253 24.4145C18.0439 24.4904 17.9524 24.536 17.8557 24.5663Z" fill="#BF0618"/>
<path d="M14.814 17.7737C14.814 17.8648 14.7937 17.9407 14.6716 17.9356C14.636 17.9356 14.6055 17.9356 14.5698 17.9356C12.5149 17.9356 10.4601 18.0217 8.41023 17.9862C8.32376 17.9862 8.22203 17.9508 8.14574 18.0369C7.92192 17.9306 7.88633 17.8344 8.0135 17.6825C8.13556 17.6421 8.26273 17.6522 8.3899 17.6522C10.3685 17.6522 12.3522 17.6522 14.3308 17.6522C14.4834 17.6522 14.636 17.6319 14.7733 17.7281C14.7886 17.7433 14.7987 17.7585 14.814 17.7737Z" fill="#C7051B"/>
<path d="M14.7733 17.7274C12.4946 17.7274 10.2209 17.7325 7.94221 17.7325C7.89643 17.7224 7.86592 17.6971 7.84048 17.6566C7.80489 17.5857 7.8354 17.5402 7.89136 17.4997C7.97783 17.4491 8.06938 17.4491 8.16092 17.4491C9.78351 17.4795 11.4061 17.3732 13.0337 17.3985C13.5576 17.4086 14.0815 17.3833 14.6054 17.4086C14.7122 17.4946 14.7326 17.6161 14.7733 17.7274Z" fill="#C4051A"/>
<path d="M4.33105 16.8775C4.36157 16.7205 4.48364 16.7762 4.5752 16.7762C5.42972 16.7712 6.28423 16.7762 7.13874 16.7711C7.23032 16.7711 7.35238 16.8268 7.38289 16.6699C7.41848 16.7054 7.44903 16.7408 7.48462 16.7711C7.48969 16.923 7.57109 17.0495 7.6372 17.1761C7.65249 17.2064 7.65249 17.2368 7.62705 17.2621C7.51006 17.3734 7.36256 17.3482 7.22013 17.3532C6.51312 17.3633 5.80102 17.338 5.09401 17.3684C4.80409 17.2621 4.54977 17.0951 4.33105 16.8775Z" fill="#D80527"/>
<path d="M18.1198 24.4132C18.069 24.4081 18.013 24.398 17.9876 24.3524C17.6417 23.7046 16.9805 23.4414 16.4108 23.0618C15.9429 22.748 15.4647 22.4494 14.9866 22.1508C14.89 22.09 14.8391 22.0394 14.9103 21.9331C15.0222 21.8623 15.1392 21.8116 15.2664 21.7812C15.2409 21.9129 15.3477 21.9584 15.4291 22.009C16.0853 22.4241 16.7414 22.829 17.3925 23.2491C17.6824 23.4364 17.9723 23.6186 18.1198 23.9577C18.1707 24.0741 18.2419 24.2006 18.3691 24.2664C18.3131 24.3524 18.1961 24.3524 18.1198 24.4132Z" fill="#BA0616"/>
<path d="M7.63672 17.2268C7.63672 17.2116 7.63672 17.1914 7.63672 17.1762C7.71304 17.1762 7.78933 17.1762 7.86562 17.1762C9.94086 17.2167 12.011 17.1054 14.0863 17.1256C14.1575 17.1256 14.2389 17.1459 14.2999 17.0801C14.4067 17.1054 14.4525 17.1914 14.5085 17.2724C14.478 17.4293 14.3457 17.3939 14.2491 17.3989C13.8625 17.4091 13.4708 17.404 13.0792 17.4091C11.4312 17.4293 9.78321 17.4698 8.13522 17.4546C8.0233 17.4546 7.9165 17.4647 7.80459 17.4344C7.70286 17.404 7.63672 17.3382 7.63672 17.2268Z" fill="#C10518"/>
<path d="M19.0301 23.705C18.908 23.705 18.8775 23.6139 18.8622 23.5177C18.791 23.0622 18.4401 22.8344 18.0993 22.6117C17.5245 22.2372 16.9345 21.8778 16.3546 21.5033C16.2682 21.4476 16.141 21.4223 16.1309 21.2857C16.2173 21.2148 16.3038 21.149 16.3852 21.0781C16.731 21.2401 17.0362 21.4628 17.3567 21.6703C17.8246 21.9689 18.318 22.2372 18.7503 22.5864C19.0199 22.799 19.1623 23.1027 19.2895 23.4114C19.2488 23.5481 19.1369 23.624 19.0301 23.705Z" fill="#A8060C"/>
<path d="M11.2989 15.6683C11.304 15.8606 11.1514 15.81 11.0547 15.81C10.4647 15.8151 9.8696 15.8151 9.27956 15.8151C8.57764 15.8151 7.87572 15.8151 7.1738 15.8151C7.10259 15.6885 7.10259 15.5468 7.07715 15.4102C8.23686 15.4659 9.40165 15.395 10.5613 15.4507C10.6071 15.4507 10.6427 15.4355 10.6834 15.4203C10.892 15.4962 11.0954 15.5822 11.2989 15.6683Z" fill="#AD060E"/>
<path d="M19.2898 23.4111C19.0305 23.1024 18.8931 22.6924 18.5218 22.4697C18.1098 22.2217 17.7029 21.9737 17.3011 21.7054C16.9959 21.4979 16.6449 21.3562 16.3906 21.0829C16.4669 21.012 16.5432 20.9361 16.6246 20.8652C16.8331 20.8804 16.9552 21.0474 17.1129 21.1436C17.7182 21.5283 18.3489 21.8826 18.9236 22.3128C19.0864 22.4343 19.2136 22.5709 19.2848 22.7582C19.3407 22.8948 19.4628 22.9809 19.5442 23.1024C19.4577 23.2036 19.3712 23.3048 19.2898 23.4111Z" fill="#A30609"/>
<path d="M16.9957 20.3652C17.1025 20.6183 17.367 20.6892 17.5705 20.8208C18.2165 21.2409 18.8879 21.6306 19.4881 22.1165C19.5694 22.1823 19.6305 22.2582 19.6763 22.3544C19.7221 22.4506 19.7729 22.5315 19.895 22.5417C19.8645 22.6682 19.7576 22.7441 19.6966 22.8454C19.5186 22.8858 19.4525 22.7542 19.4016 22.6378C19.305 22.4202 19.1422 22.2734 18.9438 22.1469C18.2877 21.7318 17.6264 21.3269 16.9805 20.8967C16.894 20.841 16.772 20.8056 16.7923 20.6639C16.8584 20.5627 16.9245 20.4665 16.9957 20.3652Z" fill="#9A0704"/>
<path d="M10.6887 15.4142C10.6429 15.5053 10.5565 15.5053 10.47 15.5053C9.42218 15.5053 8.37437 15.5053 7.3215 15.5053C7.21977 15.5053 7.14348 15.48 7.07734 15.4041C7.07734 15.3383 7.07227 15.2674 7.07227 15.2017C7.18414 15.0954 7.32657 15.1257 7.45881 15.1207C8.27772 15.1105 9.10173 15.1358 9.92064 15.1055C10.2004 15.1561 10.4242 15.3383 10.6887 15.4142Z" fill="#AA060D"/>
<path d="M9.92577 15.1057C9.85967 15.2323 9.74268 15.2019 9.63588 15.2019C8.78135 15.2019 7.93193 15.2019 7.0774 15.2019C7.06214 15.1867 7.04689 15.1665 7.03163 15.1513C7.05707 14.8476 6.97059 14.5388 7.0774 14.2402C7.17913 14.3415 7.14861 14.4731 7.15369 14.5945C7.17406 14.7919 7.32663 14.7717 7.45887 14.7717C7.96244 14.7768 8.46598 14.7768 8.96955 14.7717C9.15264 14.7717 9.33577 14.7768 9.51886 14.8071C9.68165 14.8678 9.79864 14.9944 9.92577 15.1057Z" fill="#A5060A"/>
<path d="M7.63693 17.2266C7.67256 17.2772 7.70307 17.3278 7.73866 17.3784C7.80988 17.429 7.87602 17.4797 7.84039 17.5808C7.85565 17.6163 7.87602 17.6467 7.89127 17.6821C7.78447 17.7833 7.65219 17.758 7.53013 17.758C7.00623 17.7682 6.48234 17.7378 5.95844 17.7783C5.66342 17.6568 5.36841 17.5302 5.09375 17.3683C5.18531 17.2772 5.30229 17.2772 5.42437 17.2772C6.06525 17.2772 6.70614 17.2772 7.34193 17.2772C7.44366 17.2772 7.54539 17.2822 7.63693 17.2266Z" fill="#D40525"/>
<path d="M16.7921 20.6641C17.1787 21.0183 17.6568 21.2461 18.084 21.5346C18.4452 21.7776 18.8216 22.0104 19.1929 22.2382C19.32 22.3141 19.3658 22.4406 19.4218 22.5621C19.4828 22.6886 19.5489 22.8 19.6913 22.8405C19.6761 22.9468 19.6303 23.0328 19.5388 23.0935C19.4217 23.0885 19.3404 23.0075 19.3048 22.9214C19.1064 22.3951 18.6232 22.1774 18.201 21.894C17.6771 21.5397 17.1125 21.2512 16.6191 20.8564C16.6751 20.7957 16.7311 20.7298 16.7921 20.6641Z" fill="#9E0707"/>
<path d="M7.84001 17.5802C7.80442 17.5145 7.77391 17.4436 7.73828 17.3778C9.15741 17.3778 10.5765 17.398 11.9956 17.3677C12.7789 17.3525 13.5622 17.3272 14.3404 17.3272C14.4015 17.3272 14.4625 17.3272 14.4981 17.2715C14.5337 17.317 14.5693 17.3677 14.6049 17.4132C14.5388 17.5094 14.4371 17.4739 14.3506 17.4739C13.8318 17.479 13.3181 17.479 12.7992 17.4739C11.2276 17.4537 9.65587 17.5651 8.07909 17.5246C7.9977 17.5296 7.91633 17.5347 7.84001 17.5802Z" fill="#C20519"/>
<path d="M11.4922 20.3701C11.6651 20.2992 11.8431 20.2638 12.0313 20.2638C12.601 20.2688 13.1656 20.2638 13.7353 20.2638C13.8472 20.2638 13.954 20.2587 14.0557 20.3194C13.4149 20.7902 12.7129 20.8205 11.9856 20.6029C11.8126 20.5523 11.6549 20.451 11.4922 20.3701Z" fill="#DF0528"/>
<path d="M5.95801 17.7791C6.01396 17.6627 6.12586 17.683 6.2225 17.683C6.77692 17.683 7.33132 17.683 7.89085 17.683C7.9061 17.6982 7.92643 17.7184 7.94169 17.7336C7.99257 17.845 8.05868 17.9512 8.14515 18.0373C8.16041 18.0727 8.18077 18.1031 8.19603 18.1385C7.88574 18.1385 7.58058 18.1385 7.27029 18.1385C7.14823 18.1385 7.03632 18.1436 6.96512 18.26C6.62941 18.1031 6.29371 17.9411 5.95801 17.7791Z" fill="#D00622"/>
<path d="M9.51859 14.8019C9.483 14.8171 9.4423 14.8424 9.40668 14.8424C8.6895 14.8475 7.97233 14.8424 7.25515 14.8475C7.04658 14.8475 7.08728 14.7108 7.08221 14.5894C7.24497 14.4628 7.44335 14.4679 7.63663 14.4628C8.1656 14.4476 8.69461 14.4881 9.21848 14.4375C9.31513 14.564 9.41686 14.6855 9.51859 14.8019Z" fill="#A10708"/>
<path d="M9.21365 14.443C9.1882 14.5847 9.07629 14.5442 8.99493 14.5442C8.63379 14.5493 8.26757 14.5543 7.90643 14.5442C7.62668 14.5341 7.35201 14.5797 7.07734 14.5999C7.07734 14.4784 7.07734 14.362 7.07227 14.2405C7.16888 14.1545 7.29098 14.1646 7.40797 14.1646C7.76911 14.1646 8.13022 14.1596 8.48629 14.1646C8.6643 14.1646 8.83725 14.1545 9.00508 14.0938C9.07629 14.2102 9.14751 14.3266 9.21365 14.443Z" fill="#9D0706"/>
<path d="M9.01 14.0933C8.98967 14.2704 8.85742 14.2401 8.7404 14.2401C8.18598 14.2401 7.63157 14.2401 7.07715 14.2401C7.07715 14.154 7.07715 14.073 7.07715 13.987C7.08733 13.9313 7.07715 13.8706 7.12803 13.8301C7.13821 13.9161 7.19413 13.9364 7.27046 13.9364C7.7791 13.9364 8.28771 13.9364 8.79128 13.9364C8.84724 13.9364 8.88794 13.9161 8.91845 13.8655C8.94897 13.9414 8.97948 14.0173 9.01 14.0933Z" fill="#980704"/>
<path d="M8.6543 18.6946C8.66956 18.8313 8.78147 18.8819 8.86791 18.9578C8.96456 19.0388 9.11717 19.0894 9.0968 19.2564C8.57801 19.0439 8.07444 18.8059 7.58105 18.5428C7.95238 18.4972 8.33893 18.3403 8.6543 18.6946Z" fill="#C9071F"/>
<path d="M13.0791 22.3444C12.8757 22.3191 12.6671 22.3899 12.4688 22.2988C12.7536 22.2988 13.0435 22.2988 13.3284 22.2988C13.2571 22.3697 13.1656 22.3292 13.0791 22.3444Z" fill="#D20522"/>
<path d="M18.374 24.2661C18.4198 24.1547 18.5419 24.1244 18.6284 24.0586C18.6284 24.0839 18.6284 24.1092 18.6284 24.1295C18.5419 24.18 18.4554 24.2205 18.374 24.2661Z" fill="#BA0616"/>
<path d="M11.4518 12.1646C11.4365 12.1646 11.4212 12.1646 11.406 12.1646C11.3958 12.0785 11.4009 11.9975 11.5026 11.957C11.5128 12.033 11.4874 12.0987 11.4518 12.1646Z" fill="#9C0707"/>
<path d="M4.88477 9.28008C5.17978 9.09281 5.48496 8.92069 5.80032 8.77394C5.958 8.81442 5.86136 8.91058 5.84609 8.98143C5.7698 9.27501 5.86644 9.39649 6.17162 9.35597C6.53785 9.31042 6.87863 9.1687 7.20417 9.0118C8.61819 8.33358 9.97625 7.55412 11.2326 6.61269C11.375 6.50642 11.492 6.37482 11.6039 6.23311C11.7362 6.06099 11.7972 5.89398 11.6141 5.71682C11.5785 5.68141 11.5581 5.63078 11.6039 5.58522C11.8633 5.41313 12.138 5.27142 12.4177 5.13477C12.3974 5.29168 12.5551 5.37772 12.5703 5.52451C12.5958 5.82819 12.494 6.07617 12.2855 6.29889C11.7005 6.92145 10.9681 7.34659 10.256 7.78695C9.26415 8.39432 8.26212 8.99158 7.20924 9.48758C6.79725 9.67992 6.38525 9.87227 5.93765 9.96842C5.4341 10.0747 4.99667 9.98864 4.94072 9.38635C4.93563 9.34079 4.92546 9.30538 4.88477 9.28008Z" fill="#E90537"/>
<path d="M11.6046 5.58594C11.8843 5.99593 11.8284 6.25405 11.3554 6.61341C10.4958 7.26634 9.57513 7.83319 8.63413 8.35452C8.0899 8.65821 7.53041 8.94167 6.95563 9.18965C6.72166 9.29088 6.4826 9.36177 6.23337 9.41236C6.0706 9.44781 5.90784 9.45285 5.78067 9.32125C5.65351 9.18965 5.75016 9.05301 5.80102 8.92648C5.82137 8.87585 5.87223 8.82525 5.80102 8.77462C6.17741 8.54687 6.55381 8.31911 6.96581 8.15714C7.04209 8.25837 6.95055 8.30896 6.8946 8.36467C6.81321 8.44564 6.72166 8.52661 6.64536 8.61772C6.60467 8.66835 6.54872 8.72906 6.58432 8.79992C6.62502 8.88596 6.71657 8.86574 6.78778 8.85563C6.92003 8.83537 7.05228 8.79992 7.17945 8.74932C8.15093 8.36467 9.05123 7.85853 9.91083 7.27138C10.1753 7.08918 10.4398 6.90698 10.684 6.69945C10.7552 6.63871 10.8264 6.57796 10.8772 6.50207C10.9586 6.38565 10.9892 6.28946 10.806 6.24898C10.7348 6.23379 10.6535 6.20342 10.6789 6.09715C10.984 5.89974 11.2892 5.73272 11.6046 5.58594Z" fill="#EB053E"/>
<path d="M10.6881 6.0918C10.7237 6.17277 10.7899 6.18795 10.8712 6.1981C11.0645 6.2234 11.1001 6.31955 10.9831 6.48153C10.7949 6.74473 10.5203 6.91681 10.271 7.10916C9.7268 7.52926 9.12661 7.86835 8.52131 8.19734C7.99234 8.48584 7.45318 8.7693 6.85297 8.90594C6.73599 8.93124 6.58339 8.99198 6.51218 8.84519C6.45114 8.71867 6.55796 8.61744 6.63934 8.51621C6.74616 8.38968 6.91909 8.32386 6.96996 8.15178C7.15817 7.95947 7.40229 7.87343 7.63627 7.76205C7.71766 7.86835 7.72274 7.87343 7.60575 7.96958C7.45825 8.09611 7.29042 8.20241 7.16325 8.34413C7.12255 8.39476 7.03608 8.44028 7.0717 8.5061C7.11236 8.58707 7.20902 8.55166 7.28023 8.53647C7.5498 8.49091 7.79395 8.36439 8.03303 8.2429C8.76036 7.87847 9.46739 7.4837 10.1083 6.98259C10.1795 6.92692 10.2558 6.86618 10.3219 6.80547C10.3931 6.74473 10.4999 6.67387 10.4643 6.58275C10.4185 6.46634 10.3015 6.56757 10.2202 6.56757C10.1133 6.56757 9.98618 6.65868 9.92515 6.49164C10.1744 6.355 10.4185 6.20314 10.6881 6.0918Z" fill="#EC0543"/>
<path d="M9.92519 6.5018C10.0676 6.61822 10.1999 6.49673 10.3321 6.48662C10.4135 6.48154 10.4949 6.41576 10.5559 6.51699C10.617 6.61314 10.5356 6.67892 10.4847 6.73967C10.2304 7.01806 9.91504 7.2357 9.59967 7.43816C8.95879 7.84307 8.29757 8.2328 7.58546 8.5213C7.43796 8.58204 7.28535 8.6276 7.12259 8.62253C7.06156 8.62253 6.99546 8.6276 6.96492 8.56686C6.93949 8.50611 6.98018 8.45044 7.02086 8.40996C7.18873 8.21761 7.38201 8.05564 7.59054 7.91393C7.64142 7.87848 7.72278 7.84811 7.64142 7.76207C8.38404 7.31667 9.15717 6.91175 9.92519 6.5018Z" fill="#EC0544"/>
<path d="M7.51977 8.41488C7.44348 8.41488 7.39264 8.40477 7.36212 8.35921C7.32142 8.28835 7.38245 8.25294 7.41804 8.20739C7.6215 7.97456 7.88091 7.81258 8.13525 7.65568C8.69475 7.31655 9.25424 6.97746 9.87479 6.7497C9.90531 6.73955 9.93582 6.71933 9.96634 6.70922C10.0325 6.69403 10.1088 6.67377 10.1545 6.73451C10.2054 6.80537 10.1393 6.85597 10.0935 6.9066C9.88498 7.14447 9.6052 7.29125 9.34582 7.46334C8.83717 7.7974 8.30309 8.07578 7.75378 8.32884C7.67238 8.36936 7.58084 8.39466 7.51977 8.41488Z" fill="#ED0447"/>
</g>
<defs>
<clipPath id="clip0_21796_14196">
<rect width="57.6" height="22.1538" fill="white" transform="translate(3.2002 4.80078)"/>
</clipPath>
</defs>
</svg>
