<svg width="64" height="32" viewBox="0 0 64 32" fill="none" xmlns="http://www.w3.org/2000/svg">
<g clip-path="url(#clip0_21795_14168)">
<path fill-rule="evenodd" clip-rule="evenodd" d="M3.28223 19.0207V17.8411H6.39539V19.2139C6.39539 20.4703 6.88086 21.0989 7.85112 21.0989H7.86342C8.82479 21.0989 9.30616 20.4724 9.30616 19.22C9.30616 18.5043 9.09898 17.8336 8.68325 17.2071C8.26821 16.5805 7.7718 16.0077 7.19402 15.4887L5.63368 13.8785C4.98889 13.3152 4.44941 12.6173 4.01522 11.7853C3.58035 10.9526 3.36291 10.0309 3.36291 9.01998C3.36291 7.4642 3.77317 6.271 4.59368 5.43903C5.41351 4.60705 6.52804 4.19141 7.9359 4.19141C9.34376 4.19141 10.4248 4.60705 11.1797 5.43835C11.9345 6.26964 12.312 7.46284 12.312 9.01794V9.63494H9.44086V8.83086C9.44086 7.57032 8.93351 6.93971 7.91812 6.93971C6.90274 6.93971 6.39539 7.571 6.39539 8.83222C6.39539 9.36011 6.50616 9.86352 6.72701 10.3424C6.94787 10.8213 7.23436 11.2526 7.5865 11.6377C7.93864 12.022 8.32701 12.4023 8.75094 12.7778C9.17488 13.154 9.59402 13.5479 10.007 13.9594C10.42 14.371 10.8022 14.8111 11.153 15.2812C11.5031 15.7506 11.7882 16.3057 12.0084 16.9451C12.2286 17.5853 12.3386 18.2805 12.3386 19.0322C12.3386 20.5839 11.9523 21.7744 11.1797 22.6037C10.407 23.4329 9.31641 23.8479 7.90787 23.8479C6.49932 23.8479 5.3759 23.4322 4.53829 22.6009C3.70069 21.7696 3.28223 20.5758 3.28223 19.0207Z" fill="white"/>
<path fill-rule="evenodd" clip-rule="evenodd" d="M17.096 13.6709H18.538C19.0317 13.6709 19.4023 13.5321 19.6498 13.2552C19.8966 12.9784 20.0204 12.509 20.0204 11.8471V8.96475C20.0204 8.30285 19.8966 7.83618 19.6498 7.56339C19.4023 7.2906 19.0317 7.15455 18.538 7.15455H17.096V13.6709ZM14.0635 23.6328V4.40625H18.5312C21.5452 4.40625 23.0529 5.99469 23.0529 9.17088V11.6682C23.0529 14.8355 21.5466 16.4199 18.5346 16.4199H17.096V23.6328H14.0635Z" fill="white"/>
<path fill-rule="evenodd" clip-rule="evenodd" d="M27.5003 13.0682H28.6859C29.2972 13.0682 29.7532 12.9117 30.0541 12.5988C30.355 12.2858 30.5054 11.7634 30.5054 11.0301V9.13958C30.5143 7.81713 30.0021 7.15523 28.969 7.15523H27.5003V13.0682ZM24.4678 23.6335V4.40625H29.0435C30.6038 4.40625 31.7437 4.76884 32.4609 5.49332C33.1789 6.21781 33.5379 7.33142 33.5379 8.83414V10.3498C33.5379 12.3267 32.876 13.628 31.5522 14.2539C32.8938 14.8178 33.5645 16.1818 33.5645 18.3464V21.3049V21.4253C33.5645 22.4069 33.6726 23.143 33.8879 23.6335H30.8138C30.6353 23.0892 30.5416 22.3042 30.5327 21.2777V18.2661C30.5327 17.392 30.3775 16.7648 30.0678 16.3858C29.7573 16.0062 29.252 15.8171 28.5512 15.8171H27.5003V23.6335H24.4678Z" fill="white"/>
<path fill-rule="evenodd" clip-rule="evenodd" d="M35.5596 23.6335H38.592V4.40625H35.5596V23.6335Z" fill="white"/>
<path fill-rule="evenodd" clip-rule="evenodd" d="M43.8342 20.8845H45.573C46.103 20.8845 46.4982 20.7437 46.7587 20.462C47.0192 20.1804 47.1498 19.6913 47.1498 18.994V17.3178C47.1498 16.4416 46.9994 15.8341 46.6978 15.4947C46.397 15.1545 45.8965 14.9852 45.1956 14.9852H43.8342V20.8845ZM43.8342 12.2362H45.0253C45.6387 12.2362 46.0968 12.0797 46.399 11.7668C46.7019 11.4539 46.853 10.9355 46.853 10.2117V9.1389C46.8619 7.81645 46.3477 7.15455 45.3098 7.15455H43.8342V12.2362ZM40.8018 23.6335V4.40625H45.3843C46.9474 4.40625 48.0886 4.76815 48.8072 5.49196C49.5259 6.21577 49.8855 7.3287 49.8855 8.83074V9.51441C49.8855 11.4899 49.2298 12.7818 47.9177 13.3892C49.4274 13.979 50.1816 15.3518 50.1816 17.5056V19.0743C50.1816 20.558 49.7912 21.6892 49.0096 22.4668C48.2274 23.2443 47.0821 23.6335 45.573 23.6335H40.8018Z" fill="white"/>
<path fill-rule="evenodd" clip-rule="evenodd" d="M52.001 23.6335V4.40625H60.2758V7.15523H55.0335V12.5049H59.1976V15.2532H55.0335V20.8845H60.2758V23.6335H52.001Z" fill="white"/>
<path fill-rule="evenodd" clip-rule="evenodd" d="M3.2002 27.5483H60.3181V24.8789H3.2002V27.5483Z" fill="white"/>
</g>
<defs>
<clipPath id="clip0_21795_14168">
<rect width="57.6" height="24" fill="white" transform="translate(3.2002 4)"/>
</clipPath>
</defs>
</svg>
